STARTFONT 2.3
FONT -FontForge-Indie Flower-Book-R-Normal--18-180-72-72-P-82-ISO10646-1
SIZE 18 72 72  4
FONTBOUNDINGBOX 23 27 -3 -9
COMMENT "Generated by fontforge, http://fontforge.sourceforge.net"
COMMENT "Copyright (c) 2010, Kimberly Geswein (kimberlygeswein.com)"
STARTPROPERTIES 40
FOUNDRY "FontForge"
FAMILY_NAME "Indie Flower"
WEIGHT_NAME "Book"
SLANT "R"
SETWIDTH_NAME "Normal"
ADD_STYLE_NAME ""
PIXEL_SIZE 18
POINT_SIZE 180
RESOLUTION_X 72
RESOLUTION_Y 72
SPACING "P"
AVERAGE_WIDTH 82
CHARSET_REGISTRY "ISO10646"
CHARSET_ENCODING "1"
FONTNAME_REGISTRY ""
CHARSET_COLLECTIONS "ISO8859-2 ISO8859-9 ISO8859-4 ISO10646-1"
BITS_PER_PIXEL 4
FONT_NAME "IndieFlower"
FACE_NAME "Indie Flower"
COPYRIGHT "Copyright (c) 2010, Kimberly Geswein (kimberlygeswein.com)"
FONT_VERSION "1.001 2010"
FONT_ASCENT 14
FONT_DESCENT 4
UNDERLINE_POSITION -2
UNDERLINE_THICKNESS 1
X_HEIGHT 6
CAP_HEIGHT 9
RAW_ASCENT 799
RAW_DESCENT 200
NORM_SPACE 7
RELATIVE_WEIGHT 40
RELATIVE_SETWIDTH 50
SUPERSCRIPT_X 0
SUPERSCRIPT_Y 8
SUPERSCRIPT_SIZE 11
SUBSCRIPT_X 0
SUBSCRIPT_Y 2
SUBSCRIPT_SIZE 11
AVG_LOWERCASE_WIDTH 80
AVG_UPPERCASE_WIDTH 95
ENDPROPERTIES
CHARS 356
STARTCHAR space
ENCODING 32
SWIDTH 375 0
DWIDTH 7 0
BBX 1 1 0 0
BITMAP
00
ENDCHAR
STARTCHAR exclam
ENCODING 33
SWIDTH 149 0
DWIDTH 3 0
BBX 3 15 0 0
BITMAP
3700
4800
4800
4900
5900
5900
5A00
5A00
4A00
4B00
1300
0000
0000
5C20
8E30
ENDCHAR
STARTCHAR quotedbl
ENCODING 34
SWIDTH 234 0
DWIDTH 4 0
BBX 4 7 0 8
BITMAP
0020
9075
B378
976A
5B5B
1B3B
0001
ENDCHAR
STARTCHAR numbersign
ENCODING 35
SWIDTH 768 0
DWIDTH 14 0
BBX 14 9 0 0
BITMAP
00000612600000
00000931B00000
00000984E99930
037ACFECE95650
AEA527A0B75650
10024AEDFEBAB3
04CB98E2A70000
000001D0880000
00000010560000
ENDCHAR
STARTCHAR dollar
ENCODING 36
SWIDTH 581 0
DWIDTH 10 0
BBX 11 17 0 0
BITMAP
000003100000
00000B2B0000
00000D2D0000
00006FFF2000
001BCE3E5000
004B2C1A0000
001B8B380000
0001CC860000
00006DEC1000
000078E7B100
000086C05B00
630095A00E10
6E30C6900E10
03BAE9903D00
0007FFA5D400
0001FBD93000
000097500000
ENDCHAR
STARTCHAR percent
ENCODING 37
SWIDTH 636 0
DWIDTH 11 0
BBX 11 11 0 0
BITMAP
000000003700
07B60001B100
7B4B700A3000
C303A0760000
972B63A00000
18B60C203400
00008907CC80
0002E22C12E0
000A807603C0
002E10864D50
0066002BC500
ENDCHAR
STARTCHAR ampersand
ENCODING 38
SWIDTH 457 0
DWIDTH 8 0
BBX 8 13 0 0
BITMAP
00061000
004F8000
005FB000
006FA000
007F5000
007D0244
00C909C7
03EC0B30
0B388E00
4B01F900
A603F900
C43D3930
5ED40070
ENDCHAR
STARTCHAR quotesingle
ENCODING 39
SWIDTH 102 0
DWIDTH 2 0
BBX 2 5 0 8
BITMAP
92
96
87
58
01
ENDCHAR
STARTCHAR parenleft
ENCODING 40
SWIDTH 421 0
DWIDTH 8 0
BBX 8 12 0 -1
BITMAP
00000560
0002BAA3
002C3000
00C30000
08800000
1E100000
79000000
96000000
86000000
4C100000
0AD74000
007A9000
ENDCHAR
STARTCHAR parenright
ENCODING 41
SWIDTH 290 0
DWIDTH 5 0
BBX 5 12 0 -1
BITMAP
194000
05E500
005E10
000A70
0004C0
0002D0
0004A0
000A50
005D00
03E500
3EA000
B90000
ENDCHAR
STARTCHAR asterisk
ENCODING 42
SWIDTH 412 0
DWIDTH 7 0
BBX 7 7 0 4
BITMAP
020106B0
1C9DAB20
02DFFC30
6DEFF800
09A4FB00
0A10FD40
00008000
ENDCHAR
STARTCHAR plus
ENCODING 43
SWIDTH 459 0
DWIDTH 8 0
BBX 8 8 0 0
BITMAP
00060000
001E0000
000D3000
014DC975
ADBDE997
0007B000
0005B000
0003A000
ENDCHAR
STARTCHAR comma
ENCODING 44
SWIDTH 130 0
DWIDTH 2 0
BBX 2 7 0 -4
BITMAP
43
8A
5B
79
A6
C2
30
ENDCHAR
STARTCHAR hyphen
ENCODING 45
SWIDTH 375 0
DWIDTH 7 0
BBX 6 2 0 4
BITMAP
28ABB9
687556
ENDCHAR
STARTCHAR period
ENCODING 46
SWIDTH 204 0
DWIDTH 4 0
BBX 4 4 0 0
BITMAP
0220
0DD0
2FF2
0BA0
ENDCHAR
STARTCHAR slash
ENCODING 47
SWIDTH 309 0
DWIDTH 6 0
BBX 6 14 0 0
BITMAP
000021
0000A3
0000D1
0003B0
000870
000D20
004D00
009800
00E200
05C000
0B6000
3E1000
990000
A20000
ENDCHAR
STARTCHAR zero
ENCODING 48
SWIDTH 430 0
DWIDTH 8 0
BBX 8 8 0 0
BITMAP
007ED400
08936E40
3A0004D0
940000D3
940000C3
580002E1
0B722B80
018EE900
ENDCHAR
STARTCHAR one
ENCODING 49
SWIDTH 318 0
DWIDTH 6 0
BBX 6 11 0 0
BITMAP
000043
0000A4
0000E3
0009F1
008FE0
07C9C0
6D18A0
510980
000B60
000C30
000A00
ENDCHAR
STARTCHAR two
ENCODING 50
SWIDTH 497 0
DWIDTH 9 0
BBX 9 10 0 0
BITMAP
00007B6000
0003C2D300
0002507900
0000004C00
0000005C00
0000008900
000000D300
6A71077000
AFFFEF6200
17A988CE50
ENDCHAR
STARTCHAR three
ENCODING 51
SWIDTH 430 0
DWIDTH 8 0
BBX 8 10 0 0
BITMAP
06776100
3C768B00
00000D00
0026C700
09FFB000
0026BD20
000006C0
880000C3
1BA203E2
006DFD60
ENDCHAR
STARTCHAR four
ENCODING 52
SWIDTH 412 0
DWIDTH 7 0
BBX 8 11 0 0
BITMAP
0A200000
2E000000
79000000
950000D1
A30005E0
86001EB0
3E45DF90
08FF9890
001106B0
000005D0
000003B0
ENDCHAR
STARTCHAR five
ENCODING 53
SWIDTH 571 0
DWIDTH 10 0
BBX 10 12 0 0
BITMAP
0003ACCDC5
0007B33343
000B400000
003D000000
00BE840000
00369CC300
0000004D20
0000000690
50000003B0
92000007B0
5C74349E30
04ADFEA300
ENDCHAR
STARTCHAR six
ENCODING 54
SWIDTH 440 0
DWIDTH 8 0
BBX 8 11 0 0
BITMAP
00004AB2
0009C574
00990000
05A00000
0D111000
5FECCC30
8B1005E1
A40000A5
780000B6
2F834AD1
04DFD920
ENDCHAR
STARTCHAR seven
ENCODING 55
SWIDTH 412 0
DWIDTH 7 0
BBX 8 10 0 0
BITMAP
48776300
1666B600
00009600
00009500
0133D610
07CDFCE1
0003E010
0005A000
00087000
000A3000
ENDCHAR
STARTCHAR eight
ENCODING 56
SWIDTH 375 0
DWIDTH 7 0
BBX 7 11 0 0
BITMAP
00330000
0AEEB000
7A00D200
A503C000
3D7D2000
02FD0000
0B66A000
3E005A00
2E000C20
09900B30
007DD900
ENDCHAR
STARTCHAR nine
ENCODING 57
SWIDTH 300 0
DWIDTH 5 0
BBX 6 11 0 0
BITMAP
09DC40
7902E1
B302F3
C506F1
6E7CE0
048CD0
0004B0
0004B0
0004A0
0004A0
0003A0
ENDCHAR
STARTCHAR colon
ENCODING 58
SWIDTH 84 0
DWIDTH 2 0
BBX 2 5 0 1
BITMAP
93
11
00
10
51
ENDCHAR
STARTCHAR semicolon
ENCODING 59
SWIDTH 128 0
DWIDTH 2 0
BBX 3 11 -1 -4
BITMAP
0960
0430
0000
0000
0040
01C0
03C0
08A0
1E50
3D10
1200
ENDCHAR
STARTCHAR less
ENCODING 60
SWIDTH 487 0
DWIDTH 9 0
BBX 9 8 0 0
BITMAP
0000000400
000002CA10
00007D5000
002BA10000
05D5000000
6F40000000
8EFDB95000
001357C800
ENDCHAR
STARTCHAR equal
ENCODING 61
SWIDTH 524 0
DWIDTH 9 0
BBX 9 5 0 2
BITMAP
5CEEEEDD90
1233210150
0000000000
2456666500
5AAAAAA920
ENDCHAR
STARTCHAR greater
ENCODING 62
SWIDTH 403 0
DWIDTH 7 0
BBX 8 9 0 0
BITMAP
22000000
4E600000
03BEA620
00026BF1
00000AC0
0001AB10
004D8000
08D40000
6A100000
ENDCHAR
STARTCHAR question
ENCODING 63
SWIDTH 272 0
DWIDTH 5 0
BBX 5 16 0 0
BITMAP
277100
B8AC00
000A50
000780
000A60
002F20
00AB00
02F300
089000
08D920
005720
000000
000000
000000
000310
000A40
ENDCHAR
STARTCHAR at
ENCODING 64
SWIDTH 815 0
DWIDTH 15 0
BBX 15 17 0 -1
BITMAP
00006DDEB5000000
002C81004AC30000
01C30000003C6000
0A4000000001D600
2900000441004E00
730004C99D800C20
91003B1001C40A30
9100B2000C400C20
8301C0001F501E00
4901B0002F608A00
0D10C101CBEAE200
07904DCE70351000
00C6013100000000
002D600000000000
0001BA3000269400
000006DEDEDA6000
0000000010000000
ENDCHAR
STARTCHAR A
ENCODING 65
SWIDTH 562 0
DWIDTH 10 0
BBX 10 14 0 0
BITMAP
0006A82000
00B736E300
0580004C00
0A20000A50
0B000004A0
0B000000D0
1A000000C2
2A000000B5
7FDBBBCBF7
1D00000188
0D00000069
0F1000006A
0C30000099
07500000A5
ENDCHAR
STARTCHAR B
ENCODING 66
SWIDTH 741 0
DWIDTH 13 0
BBX 13 13 0 0
BITMAP
00146740000000
4BBFFCBD600000
310A8001D40000
0004B000950000
0001E016C00000
0000D5FF700000
0000A64AFB2000
0000890017D400
00005B00002C30
00003D000005C0
00003D000003F0
0000CF61002BB0
000017BDFFE910
ENDCHAR
STARTCHAR C
ENCODING 67
SWIDTH 515 0
DWIDTH 9 0
BBX 9 12 0 0
BITMAP
0000388000
0008E9E100
00AA109000
0690000000
0B00000000
5500000000
9300000000
A300000000
8600000000
4B00000000
0C93469C80
02BFDA7400
ENDCHAR
STARTCHAR D
ENCODING 68
SWIDTH 741 0
DWIDTH 13 0
BBX 13 13 0 -1
BITMAP
00344200000000
6ECBBFE9300000
31000B76DA1000
0000087008D200
00000590007D00
000003B0000B60
000002E00005B0
000001F10003C0
000000F20007A0
000000E2003F40
0000454017E900
00004DFDFC6000
00000012100000
ENDCHAR
STARTCHAR E
ENCODING 69
SWIDTH 524 0
DWIDTH 9 0
BBX 9 12 0 0
BITMAP
0211000000
6FFEEDDC20
6900000010
6900000000
6900001200
8C79BDD700
8B64310000
8500000000
9500000000
A500000000
7823457830
1AEFFEDA20
ENDCHAR
STARTCHAR F
ENCODING 70
SWIDTH 514 0
DWIDTH 9 0
BBX 12 11 -1 0
BITMAP
0379BBCB9620
587DD6567BE9
000870000013
000760000000
000680000000
015CEBCCA100
0178F8863000
0000E1000000
0000D3000000
0000C6000000
000075000000
ENDCHAR
STARTCHAR G
ENCODING 71
SWIDTH 571 0
DWIDTH 10 0
BBX 10 12 0 -2
BITMAP
0000002540
00006CB9C4
002C810000
02D3000000
0B40220220
4B005CCCE5
6700000077
4A000000A7
0C93235BF7
019CCA64A7
000000007D
0000000002
ENDCHAR
STARTCHAR H
ENCODING 72
SWIDTH 524 0
DWIDTH 9 0
BBX 9 13 0 0
BITMAP
0000000010
3300000850
5700000940
4900000940
3A00000A40
2C00001C40
1E0029EE50
0F5AD71960
6FD7100860
1D50000780
0960000690
08600005B0
04400001C0
ENDCHAR
STARTCHAR I
ENCODING 73
SWIDTH 167 0
DWIDTH 3 0
BBX 3 10 0 0
BITMAP
9100
8600
5A00
1D00
0D10
0B30
0A60
0880
06A0
03A0
ENDCHAR
STARTCHAR J
ENCODING 74
SWIDTH 439 0
DWIDTH 8 0
BBX 8 13 0 0
BITMAP
00000230
00000490
000002D0
000000F1
000000D3
000000A5
12000087
85000078
5A000069
09400068
00B40087
001B71C3
00008EA0
ENDCHAR
STARTCHAR K
ENCODING 75
SWIDTH 468 0
DWIDTH 8 0
BBX 8 11 0 0
BITMAP
40000610
A301B900
850AA000
678B0000
4CC10000
3F300000
2FC10000
2CAC1000
2D07D500
0F003CA1
0B10008C
ENDCHAR
STARTCHAR L
ENCODING 76
SWIDTH 346 0
DWIDTH 6 0
BBX 6 10 0 0
BITMAP
060000
2D0000
4C0000
6A0000
880000
960000
A50000
A60000
6C5321
07DFFC
ENDCHAR
STARTCHAR M
ENCODING 77
SWIDTH 534 0
DWIDTH 10 0
BBX 10 11 0 0
BITMAP
9900000950
4F40001E60
0DD1009F50
0DBD9BFF40
0D25861B50
0E20000960
0F20000790
0F100006B0
0F100004E0
0F100003F0
06000001F1
ENDCHAR
STARTCHAR N
ENCODING 78
SWIDTH 609 0
DWIDTH 11 0
BBX 11 10 0 0
BITMAP
260000000000
3C000003B000
2F200001F600
2F6000009C00
3FC000001E20
4CC400000A50
683D10000970
7908A0000C40
7A00AD76BB00
580006BB8100
ENDCHAR
STARTCHAR O
ENCODING 79
SWIDTH 609 0
DWIDTH 11 0
BBX 11 9 0 0
BITMAP
006A84000000
0BA68CD60000
5900003DA000
93000001C800
A30000001E20
780000000A60
2E4000000C50
06F82015CA00
003AEED94000
ENDCHAR
STARTCHAR P
ENCODING 80
SWIDTH 627 0
DWIDTH 11 0
BBX 11 11 0 0
BITMAP
16ACB9620000
993346AEB300
610041006E40
0000930004D0
0000940001F0
000096001AA0
00008D9AE900
00006EA72000
00004C000000
00001D000000
000009000000
ENDCHAR
STARTCHAR Q
ENCODING 81
SWIDTH 642 0
DWIDTH 12 0
BBX 12 12 0 -2
BITMAP
0017A7100000
03C87AE60000
0C2000AEA000
590000A3AA00
870000200B60
8700010002D0
5A00077000C1
0D4001E405C0
03EA43CECD20
0019DEDCF500
000000002B40
0000000002C8
ENDCHAR
STARTCHAR R
ENCODING 82
SWIDTH 579 0
DWIDTH 10 0
BBX 11 13 -1 -1
BITMAP
000233200000
08ECCCEE9100
2C100002AD10
030700000A50
000C10005E50
000B87AED600
0009EA730000
0007F4000000
0004BD200000
0001B3C30000
0000B02C5000
00006101BA20
000000000690
ENDCHAR
STARTCHAR S
ENCODING 83
SWIDTH 627 0
DWIDTH 11 0
BBX 11 12 0 -1
BITMAP
00049CB94000
005B4115D800
009400000200
005B10000000
0006D6000000
000018D71000
1100002AD500
860000003C50
5B00000005C0
07B410001A90
0029DEDED810
000001110000
ENDCHAR
STARTCHAR T
ENCODING 84
SWIDTH 581 0
DWIDTH 10 0
BBX 12 12 0 0
BITMAP
333322100000
69BDEFFEEC94
000006801478
000005800000
000004A00000
000003B00000
000002D00000
000000F10000
000000D30000
000000B60000
0000009A0000
0000004F1000
ENDCHAR
STARTCHAR U
ENCODING 85
SWIDTH 571 0
DWIDTH 10 0
BBX 10 10 0 0
BITMAP
1A10000400
5800000A50
7500000B70
7500000970
6700000690
49000002D0
1D000002F3
0B50001CF9
03E647D77E
005DEA2006
ENDCHAR
STARTCHAR V
ENCODING 86
SWIDTH 421 0
DWIDTH 8 0
BBX 8 10 0 0
BITMAP
31000020
890000C2
4F2001F1
0D7005E0
06E008B0
01E60A70
008C0E30
001E6D00
0008F700
0001C100
ENDCHAR
STARTCHAR W
ENCODING 87
SWIDTH 703 0
DWIDTH 13 0
BBX 13 9 0 0
BITMAP
91000000008000
C300000000E500
C400000000AA00
B5000600004E00
A7000E10000E30
79000E60000B50
3D006FD1000D30
0B98E38C44B900
01BB2006EE7000
ENDCHAR
STARTCHAR X
ENCODING 88
SWIDTH 534 0
DWIDTH 10 0
BBX 10 11 0 -1
BITMAP
0310000000
05900004B3
00C3005D30
003C06B100
000AEA0000
000BF10000
008BB90000
04C11D5000
1D3003D200
6900004A00
9200000000
ENDCHAR
STARTCHAR Y
ENCODING 89
SWIDTH 403 0
DWIDTH 7 0
BBX 7 13 0 -1
BITMAP
50000000
960000B0
3E1002C0
08C10890
007E9E40
0003BD00
00009800
0000D200
0002D000
00059000
00067000
00078000
00012000
ENDCHAR
STARTCHAR Z
ENCODING 90
SWIDTH 571 0
DWIDTH 10 0
BBX 10 12 0 0
BITMAP
0021000000
6ECBD91000
420006C000
000000B300
000000B300
000003E100
006ACFFFD2
00658E4000
0000A50000
0006A00000
000D4148BB
000AFFDB72
ENDCHAR
STARTCHAR bracketleft
ENCODING 91
SWIDTH 477 0
DWIDTH 9 0
BBX 10 15 0 -2
BITMAP
0000158920
027CEA6200
7E93000000
7A00000000
3D00000000
0E30000000
0A60000000
0680000000
04A0000000
01C0000000
00C0000000
00C1000000
00B3000000
00ACABCDD8
0057432222
ENDCHAR
STARTCHAR backslash
ENCODING 92
SWIDTH 430 0
DWIDTH 8 0
BBX 8 10 0 0
BITMAP
71000000
7B000000
0BA00000
01E80000
004F5000
0007E300
0000AD10
00001D90
000002F3
000000B5
ENDCHAR
STARTCHAR bracketright
ENCODING 93
SWIDTH 430 0
DWIDTH 8 0
BBX 8 17 0 -2
BITMAP
8DCA8300
0147AE20
00000A80
000005B0
000003C0
000000C0
000000C0
000000C0
000000B0
000000B1
000000B2
000000B3
000000B4
000000B4
000000B5
08AAAAE6
07AAAAA3
ENDCHAR
STARTCHAR asciicircum
ENCODING 94
SWIDTH 375 0
DWIDTH 7 0
BBX 5 5 1 9
BITMAP
001000
02F300
09FD20
9C2CA0
610150
ENDCHAR
STARTCHAR underscore
ENCODING 95
SWIDTH 656 0
DWIDTH 12 0
BBX 12 2 0 0
BITMAP
4CB976655551
003689BCDEF6
ENDCHAR
STARTCHAR grave
ENCODING 96
SWIDTH 172 0
DWIDTH 3 0
BBX 3 3 0 7
BITMAP
7900
09A0
0010
ENDCHAR
STARTCHAR a
ENCODING 97
SWIDTH 505 0
DWIDTH 9 0
BBX 9 9 0 0
BITMAP
003DD60000
00224C8000
000001D500
0047757D00
1CC869FF30
8800004E60
9400000670
3D74356850
029DEEB610
ENDCHAR
STARTCHAR b
ENCODING 98
SWIDTH 497 0
DWIDTH 9 0
BBX 9 12 0 0
BITMAP
3200000000
C500000000
A600000000
7800000000
5A00000000
2C01000000
0FEEEA4000
0E6016D900
0C30001C50
0A50000780
05E6115E60
007EFFC600
ENDCHAR
STARTCHAR c
ENCODING 99
SWIDTH 449 0
DWIDTH 8 0
BBX 8 8 0 0
BITMAP
008DDA10
0A700850
5B000220
96000000
A6000000
7B000000
1DA31000
018DFFD5
ENDCHAR
STARTCHAR d
ENCODING 100
SWIDTH 524 0
DWIDTH 9 0
BBX 9 13 0 0
BITMAP
000001B000
000000F500
000000BB00
0000007E00
0000004F30
03DEB41F50
1EC67DAF60
6D1001AF80
9800002F90
9700007FA0
6C0004ECB0
1E748E53E0
03DEA30030
ENDCHAR
STARTCHAR e
ENCODING 101
SWIDTH 515 0
DWIDTH 9 0
BBX 9 10 0 0
BITMAP
0003400000
02CBAD1000
0C40087000
5900059000
96005D4000
A8CDC40000
8721000000
2D10000000
06D7322330
002AEFD810
ENDCHAR
STARTCHAR f
ENCODING 102
SWIDTH 376 0
DWIDTH 7 0
BBX 10 13 -1 0
BITMAP
0000398300
0003E76E50
000B3003D1
001B000000
0049000000
005A000000
005C000000
08CFCA9200
163DA66100
0006C00000
0000D50000
00006E1000
00000B6000
ENDCHAR
STARTCHAR g
ENCODING 103
SWIDTH 366 0
DWIDTH 7 0
BBX 10 17 -3 -9
BITMAP
0000004400
00001BAC50
0000B503C0
0004A001F1
00096002F3
00097006F4
0003E9AFF5
00003872E6
00000000B6
0000000097
0000000078
0000000069
4800000078
4B00000096
09C40000E3
006ED96BB0
000059BA10
ENDCHAR
STARTCHAR h
ENCODING 104
SWIDTH 427 0
DWIDTH 8 0
BBX 8 13 -1 0
BITMAP
25000000
2D000000
0D300000
09700000
07902000
04DDFE50
02F736D1
01D00068
00E0002C
00D1001E
00C3002F
00B5002F
0094003B
ENDCHAR
STARTCHAR i
ENCODING 105
SWIDTH 174 0
DWIDTH 3 0
BBX 3 11 0 0
BITMAP
9200
3200
0000
0B00
0D00
0D20
0C40
0B70
0AA0
07B0
03A0
ENDCHAR
STARTCHAR j
ENCODING 106
SWIDTH 200 0
DWIDTH 4 0
BBX 6 19 -2 -8
BITMAP
003300
004900
000000
000000
000840
000690
0004D0
0002F2
0000E4
0000B7
000099
00006B
00004D
B0002E
C5000F
6C000F
0C700E
02D98D
0019F7
ENDCHAR
STARTCHAR k
ENCODING 107
SWIDTH 403 0
DWIDTH 7 0
BBX 8 11 0 0
BITMAP
90000000
C0000000
B3000000
87009800
5A069000
3D590000
1FD10000
0F900000
0FE30000
0F7DB640
1D017CC1
ENDCHAR
STARTCHAR l
ENCODING 108
SWIDTH 120 0
DWIDTH 2 0
BBX 2 10 0 0
BITMAP
75
88
89
89
8A
8A
8A
7A
69
57
ENDCHAR
STARTCHAR m
ENCODING 109
SWIDTH 750 0
DWIDTH 14 0
BBX 13 8 0 0
BITMAP
00110000386000
69FFD309EACB00
7F604EBC200C50
6C0009F20006B0
5A0004E00002E0
5B0000E40001F0
4C0000850002E0
180000000003A0
ENDCHAR
STARTCHAR n
ENCODING 110
SWIDTH 459 0
DWIDTH 8 0
BBX 8 8 0 0
BITMAP
105BEA00
7DB32B90
7E1001E2
7B000098
5C00005B
3F00003E
0E30003E
0650003A
ENDCHAR
STARTCHAR o
ENCODING 111
SWIDTH 487 0
DWIDTH 9 0
BBX 9 7 0 0
BITMAP
006CEE8000
0BA315D800
7800001D10
A400000C30
8700004F10
2D6128F700
02AEEB4000
ENDCHAR
STARTCHAR p
ENCODING 112
SWIDTH 520 0
DWIDTH 9 0
BBX 9 14 0 -7
BITMAP
0001330000
03CFDDE700
2E71002C70
7D000002D0
AE330003E0
9F4EB8AF80
6F32677300
3F50000000
0F70000000
0CA0000000
08C0000000
03E0000000
00D2000000
0031000000
ENDCHAR
STARTCHAR q
ENCODING 113
SWIDTH 412 0
DWIDTH 7 0
BBX 7 15 0 -6
BITMAP
006CDA10
08A10990
2D0005A0
86000990
A3000B80
94000C70
5B000D50
0CC8AF40
01798F40
00000B40
00000A50
00000970
00000980
00000790
00000260
ENDCHAR
STARTCHAR r
ENCODING 114
SWIDTH 346 0
DWIDTH 6 0
BBX 6 9 0 0
BITMAP
000100
37CEFA
AB1025
970000
780000
4C0000
1E2000
0B6000
046000
ENDCHAR
STARTCHAR s
ENCODING 115
SWIDTH 514 0
DWIDTH 9 0
BBX 9 9 0 0
BITMAP
0002100000
08ECDA0000
4C10094000
2C10051000
05CB985100
0001359E30
21000008A0
5D61002B90
04ADFFE910
ENDCHAR
STARTCHAR t
ENCODING 116
SWIDTH 328 0
DWIDTH 6 0
BBX 6 11 0 0
BITMAP
00B300
00B600
00B600
00C700
9EFFF9
02A800
00A800
00A800
009900
007900
002800
ENDCHAR
STARTCHAR u
ENCODING 117
SWIDTH 501 0
DWIDTH 9 0
BBX 9 9 0 0
BITMAP
6400000000
B400008500
A300009800
9600009A00
6A0000AB00
1E2003FD00
07C23D6D30
008ED40880
0000000260
ENDCHAR
STARTCHAR v
ENCODING 118
SWIDTH 389 0
DWIDTH 7 0
BBX 7 7 0 0
BITMAP
82000000
7B000880
1E201E10
08807A00
01E2D400
007DD000
000C5000
ENDCHAR
STARTCHAR w
ENCODING 119
SWIDTH 656 0
DWIDTH 12 0
BBX 12 8 0 0
BITMAP
140000000000
770000000400
B40004400690
C300078000E1
A50008A000C4
5A000CE100D4
0C64BDBB6AE1
01BEA208BA40
ENDCHAR
STARTCHAR x
ENCODING 120
SWIDTH 448 0
DWIDTH 8 0
BBX 8 8 0 -1
BITMAP
A300007B
5E301AB1
06E7C700
007F7000
00ABE400
08506E40
0A0007E1
00000086
ENDCHAR
STARTCHAR y
ENCODING 121
SWIDTH 487 0
DWIDTH 9 0
BBX 9 17 0 -9
BITMAP
6000000700
A200001B00
9400000E00
7800000F10
2D00000E30
0A60007F50
01D86BBC60
0017940660
0000000570
0000000670
0000000760
0000000950
0000000B30
2B00000E10
0CB1005A00
01BD77E300
0004AB5000
ENDCHAR
STARTCHAR z
ENCODING 122
SWIDTH 459 0
DWIDTH 8 0
BBX 8 10 0 0
BITMAP
00343000
5EBBC900
43000E00
00001E00
00007B10
3BDFEC90
025E4000
01D60000
06F635A9
02CFEC81
ENDCHAR
STARTCHAR braceleft
ENCODING 123
SWIDTH 393 0
DWIDTH 7 0
BBX 7 18 0 -2
BITMAP
004BED40
07D40250
4D100000
96000000
94000000
4A000000
0AC40000
007ED300
007FE900
2C921F00
12005D00
0004D300
008C2000
07B00000
0C200000
0B400000
05E63570
006BA940
ENDCHAR
STARTCHAR bar
ENCODING 124
SWIDTH 149 0
DWIDTH 3 0
BBX 3 12 0 0
BITMAP
5000
9200
6600
3A00
0C00
0D00
0D10
0D20
0C30
0C30
0B30
0A40
ENDCHAR
STARTCHAR braceright
ENCODING 125
SWIDTH 440 0
DWIDTH 8 0
BBX 8 22 0 -5
BITMAP
9EDDC500
AA004D30
02000980
00001C60
0001BB00
001B9000
00A80000
00E20000
00BFEE50
00B73200
00A70000
002D5000
0001C400
00002D10
00000770
000001D1
00000095
00000076
400000B5
C71018C0
2BEBDA20
00010000
ENDCHAR
STARTCHAR asciitilde
ENCODING 126
SWIDTH 402 0
DWIDTH 7 0
BBX 7 3 0 7
BITMAP
19920460
863BCB10
52002000
ENDCHAR
STARTCHAR nonbreakingspace
ENCODING 160
SWIDTH 375 0
DWIDTH 7 0
BBX 1 1 0 0
BITMAP
00
ENDCHAR
STARTCHAR exclamdown
ENCODING 161
SWIDTH 149 0
DWIDTH 3 0
BBX 3 12 0 0
BITMAP
7E30
2710
0000
0200
2B00
3B00
3A00
3A00
3A00
3900
3900
3900
ENDCHAR
STARTCHAR cent
ENCODING 162
SWIDTH 449 0
DWIDTH 8 0
BBX 8 11 0 -1
BITMAP
00041000
00076000
007DE910
0A84B850
4B02D220
9602E000
9602E000
7A02E000
1E94E000
03CFFEC5
0001B000
ENDCHAR
STARTCHAR sterling
ENCODING 163
SWIDTH 758 0
DWIDTH 14 0
BBX 14 13 0 0
BITMAP
000000006DFC30
00000005C315D0
0000000C100092
00000049000000
000000B6111000
00148CFFEEC000
006A77F4001000
00000390000000
00000750000000
00000C10000000
25548C32000000
BFFFFFFFE40000
5EFA3012200000
ENDCHAR
STARTCHAR currency
ENCODING 164
SWIDTH 618 0
DWIDTH 11 0
BBX 11 10 0 0
BITMAP
340000000100
1D729DEB6C10
02EF955AF300
00D400007700
02B000001A00
02B000004900
00C30002D400
00CE858E7000
06C15766C100
041000004200
ENDCHAR
STARTCHAR yen
ENCODING 165
SWIDTH 389 0
DWIDTH 7 0
BBX 8 15 0 -1
BITMAP
13000000
2E100091
0A5007B0
04901E30
00B18B00
006AE300
000EB000
000A5000
5ACFEB10
000D3000
4DEFEA00
012F3100
002F1000
004F0000
00010000
ENDCHAR
STARTCHAR brokenbar
ENCODING 166
SWIDTH 117 0
DWIDTH 2 0
BBX 2 12 0 -1
BITMAP
21
77
78
77
76
33
97
98
88
78
58
01
ENDCHAR
STARTCHAR section
ENCODING 167
SWIDTH 514 0
DWIDTH 9 0
BBX 10 12 0 0
BITMAP
029DC94000
0D8336D800
0E10001A10
05D7531000
09EDBBCC40
5E100005E0
3D100003F1
07EBAABE70
0014559E30
13000008A0
0C92002B90
017CEFE910
ENDCHAR
STARTCHAR dieresis
ENCODING 168
SWIDTH 397 0
DWIDTH 7 0
BBX 5 3 1 7
BITMAP
240430
AE0DB0
120210
ENDCHAR
STARTCHAR copyright
ENCODING 169
SWIDTH 667 0
DWIDTH 12 0
BBX 12 11 0 -1
BITMAP
001AEFE93000
01C50149E700
09506CD83D60
1D05A01C02D1
580C20030076
570E1000003A
3C0C4000003B
0C84D99AA097
03EA34689DA0
002AEEEC8300
000001000000
ENDCHAR
STARTCHAR ordfeminine
ENCODING 170
SWIDTH 266 0
DWIDTH 5 0
BBX 5 5 0 4
BITMAP
059100
001900
497D20
700440
39A920
ENDCHAR
STARTCHAR guillemotleft
ENCODING 171
SWIDTH 755 0
DWIDTH 14 0
BBX 13 9 0 0
BITMAP
00000000000430
0000000402BA10
000002CA6D6000
00007D6AA20000
002BA5D5000000
05D54E81000000
6F404ADFEC9300
8EFDB951248B00
001357C8000000
ENDCHAR
STARTCHAR logicalnot
ENCODING 172
SWIDTH 369 0
DWIDTH 7 0
BBX 7 4 0 4
BITMAP
13333310
4CBBBE30
00000B20
00000500
ENDCHAR
STARTCHAR hyphen_
ENCODING 173
SWIDTH 375 0
DWIDTH 7 0
BBX 6 2 0 4
BITMAP
28ABB9
687556
ENDCHAR
STARTCHAR registered
ENCODING 174
SWIDTH 708 0
DWIDTH 13 0
BBX 12 11 0 0
BITMAP
000045300000
004CAADE7000
03C11214CC10
0B6DBAAB6AA0
2C238103F1C3
5800C86BA058
4900BD52002B
1E2099B1003B
09C1663B43C5
01BE7458FD50
00049B973000
ENDCHAR
STARTCHAR macron
ENCODING 175
SWIDTH 287 0
DWIDTH 5 0
BBX 6 2 0 8
BITMAP
18AB91
496561
ENDCHAR
STARTCHAR degree
ENCODING 176
SWIDTH 254 0
DWIDTH 5 0
BBX 4 5 0 5
BITMAP
0691
7438
6007
8019
3AB3
ENDCHAR
STARTCHAR plusminus
ENCODING 177
SWIDTH 459 0
DWIDTH 8 0
BBX 8 9 0 0
BITMAP
00070000
000E1000
000B6000
014CDA86
8DACE997
0005D000
0002D000
059CFEE9
06531111
ENDCHAR
STARTCHAR twosuperior
ENCODING 178
SWIDTH 296 0
DWIDTH 5 0
BBX 5 6 0 4
BITMAP
008700
004720
000530
000810
763700
7CBA50
ENDCHAR
STARTCHAR threesuperior
ENCODING 179
SWIDTH 204 0
DWIDTH 4 0
BBX 4 6 0 5
BITMAP
8870
0080
5D60
0293
8008
3AA4
ENDCHAR
STARTCHAR acute
ENCODING 180
SWIDTH 180 0
DWIDTH 3 0
BBX 3 3 0 7
BITMAP
0290
4D30
A200
ENDCHAR
STARTCHAR mu
ENCODING 181
SWIDTH 501 0
DWIDTH 9 0
BBX 9 11 0 -2
BITMAP
3200000000
A500005200
B300009800
B500009900
B800009A00
BD0001EC00
BE900ACF10
B6DCDC1C60
B315500590
B300000000
1000000000
ENDCHAR
STARTCHAR paragraph
ENCODING 182
SWIDTH 413 0
DWIDTH 7 0
BBX 7 11 0 -1
BITMAP
00123200
0AFFFF40
6FFFFD80
9FFFF5A0
8FFFE4B0
0435D4C0
0001D5C0
0001D5C0
0001D5B0
0000E490
00003130
ENDCHAR
STARTCHAR periodcentered
ENCODING 183
SWIDTH 212 0
DWIDTH 4 0
BBX 3 3 0 3
BITMAP
0110
1DE0
0A90
ENDCHAR
STARTCHAR cedilla
ENCODING 184
SWIDTH 445 0
DWIDTH 8 0
BBX 6 7 2 -6
BITMAP
030000
0C0000
0B6100
016AB1
130096
0B94B3
006720
ENDCHAR
STARTCHAR onesuperior
ENCODING 185
SWIDTH 197 0
DWIDTH 4 0
BBX 5 7 -1 4
BITMAP
000630
000B20
008F00
087D00
262B00
003800
003500
ENDCHAR
STARTCHAR ordmasculine
ENCODING 186
SWIDTH 254 0
DWIDTH 5 0
BBX 4 5 0 5
BITMAP
0691
7438
6007
8019
3AB3
ENDCHAR
STARTCHAR guillemotright
ENCODING 187
SWIDTH 659 0
DWIDTH 12 0
BBX 12 9 0 0
BITMAP
220048000000
4E601BC61000
03BEA66AEC80
00026BF107F1
00000AC03D70
0001AB16E500
004D81AC2000
08D43D800000
6A1034000000
ENDCHAR
STARTCHAR onequarter
ENCODING 188
SWIDTH 626 0
DWIDTH 11 0
BBX 11 14 0 0
BITMAP
000004100000
000009100000
00080A000000
00380A000000
02D748000000
1AA574000000
6293B1000000
00A1C0600000
008484800000
000858200640
000C17302E20
002B02C9CE00
007700130B20
007200000920
ENDCHAR
STARTCHAR onehalf
ENCODING 189
SWIDTH 566 0
DWIDTH 10 0
BBX 10 14 0 -1
BITMAP
0004023000
000B074000
003B091000
02D90B0000
1BB72A0000
A485670200
1093A34990
00A1D04091
0083A00082
0007600091
000B2000A0
002C8E8A30
00773AAAC6
0082000000
ENDCHAR
STARTCHAR threequarters
ENCODING 190
SWIDTH 566 0
DWIDTH 10 0
BBX 10 14 0 -1
BITMAP
0000024000
0110064000
6791082000
00820A0000
2DA01A0000
0057471000
810884A000
19A7C46002
0001B4301A
00058360A8
000940BDA7
000D000128
003A000018
0045000000
ENDCHAR
STARTCHAR questiondown
ENCODING 191
SWIDTH 272 0
DWIDTH 5 0
BBX 6 14 0 -1
BITMAP
4B0000
010000
000000
000000
132000
3AEA00
008B00
03F400
0C9000
4E1000
890000
6A0000
0BA8B1
004620
ENDCHAR
STARTCHAR Agrave
ENCODING 192
SWIDTH 562 0
DWIDTH 10 0
BBX 10 17 0 0
BITMAP
0001C30000
00004D2000
0000010000
0006A82000
00B736E300
0580004C00
0A20000A50
0B000004A0
0B000000D0
1A000000C2
2A000000B5
7FDBBBCBF7
1D00000188
0D00000069
0F1000006A
0C30000099
07500000A5
ENDCHAR
STARTCHAR Aacute
ENCODING 193
SWIDTH 562 0
DWIDTH 10 0
BBX 10 17 0 0
BITMAP
0000820000
001C700000
0066000000
0006A82000
00B736E300
0580004C00
0A20000A50
0B000004A0
0B000000D0
1A000000C2
2A000000B5
7FDBBBCBF7
1D00000188
0D00000069
0F1000006A
0C30000099
07500000A5
ENDCHAR
STARTCHAR Acircumflex
ENCODING 194
SWIDTH 562 0
DWIDTH 10 0
BBX 10 18 0 0
BITMAP
0000100000
0001F40000
0008FE2000
008D2BB000
0067A98000
00B736E300
0580004C00
0A20000A50
0B000004A0
0B000000D0
1A000000C2
2A000000B5
7FDBBBCBF7
1D00000188
0D00000069
0F1000006A
0C30000099
07500000A5
ENDCHAR
STARTCHAR Atilde
ENCODING 195
SWIDTH 562 0
DWIDTH 10 0
BBX 10 17 0 0
BITMAP
0199203600
0762BCB100
0420020000
0006A82000
00B736E300
0580004C00
0A20000A50
0B000004A0
0B000000D0
1A000000C2
2A000000B5
7FDBBBCBF7
1D00000188
0D00000069
0F1000006A
0C30000099
07500000A5
ENDCHAR
STARTCHAR Adieresis
ENCODING 196
SWIDTH 562 0
DWIDTH 10 0
BBX 10 17 0 0
BITMAP
0015024000
007F39F000
0003012000
0006A82000
00B736E300
0580004C00
0A20000A50
0B000004A0
0B000000D0
1A000000C2
2A000000B5
7FDBBBCBF7
1D00000188
0D00000069
0F1000006A
0C30000099
07500000A5
ENDCHAR
STARTCHAR Aring
ENCODING 197
SWIDTH 562 0
DWIDTH 10 0
BBX 10 17 0 0
BITMAP
0001630000
00093B1000
00191A1000
000AFC3000
00B736E300
0580004C00
0A20000A50
0B000004A0
0B000000D0
1A000000C2
2A000000B5
7FDBBBCBF7
1D00000188
0D00000069
0F1000006A
0C30000099
07500000A5
ENDCHAR
STARTCHAR AE
ENCODING 198
SWIDTH 960 0
DWIDTH 17 0
BBX 17 14 0 0
BITMAP
0006A8200000000000
00B736E30000000000
0580004C0222111100
0A20000A6FEDDDCC60
0B000004CD00000000
0B000000ED00000000
1A000000CD00001210
2A000000BE89BDD910
7FDBBBCBFD53210000
1D0000018A00000000
0D0000006900000000
0F1000006A00000000
0C3000009C33457860
07500000AADEEECA40
ENDCHAR
STARTCHAR Ccedilla
ENCODING 199
SWIDTH 515 0
DWIDTH 9 0
BBX 9 18 0 -6
BITMAP
0000388000
0008E9E100
00AA109000
0690000000
0B00000000
5500000000
9300000000
A300000000
8600000000
4B00000000
0C93469C80
02CFDA7400
0066000000
002B310000
00038C7000
003100E000
003D65B000
0002761000
ENDCHAR
STARTCHAR Egrave
ENCODING 200
SWIDTH 524 0
DWIDTH 9 0
BBX 9 14 0 0
BITMAP
0007900000
00009A0000
0211010000
6FFEEDDC20
6900000010
6900000000
6900001200
8C79BDD700
8B64310000
8500000000
9500000000
A500000000
7823457830
1AEFFEDA20
ENDCHAR
STARTCHAR Eacute
ENCODING 201
SWIDTH 524 0
DWIDTH 9 0
BBX 9 14 0 0
BITMAP
0000470000
0007C10000
022B100000
6FFEEDDC20
6900000010
6900000000
6900001200
8C79BDD700
8B64310000
8500000000
9500000000
A500000000
7823457830
1AEFFEDA20
ENDCHAR
STARTCHAR Ecircumflex
ENCODING 202
SWIDTH 524 0
DWIDTH 9 0
BBX 9 17 0 0
BITMAP
0000100000
0000B90000
0003FF6000
004E47F100
0043006100
0211000000
6FFEEDDC20
6900000010
6900000000
6900001200
8C79BDD700
8B64310000
8500000000
9500000000
A500000000
7823457830
1AEFFEDA20
ENDCHAR
STARTCHAR Edieresis
ENCODING 203
SWIDTH 524 0
DWIDTH 9 0
BBX 9 14 0 0
BITMAP
0025033000
008F1BD000
0223022000
6FFEEDDC20
6900000010
6900000000
6900001200
8C79BDD700
8B64310000
8500000000
9500000000
A500000000
7823457830
1AEFFEDA20
ENDCHAR
STARTCHAR Igrave
ENCODING 204
SWIDTH 167 0
DWIDTH 3 0
BBX 4 14 -1 0
BITMAP
3C20
05D0
0010
0000
0910
0860
05A0
01D0
00D1
00B3
00A6
0088
006A
003A
ENDCHAR
STARTCHAR Iacute
ENCODING 205
SWIDTH 167 0
DWIDTH 3 0
BBX 4 13 -1 0
BITMAP
0083
1C80
5700
0910
0860
05A0
01D0
00D1
00B3
00A6
0088
006A
003A
ENDCHAR
STARTCHAR Icircumflex
ENCODING 206
SWIDTH 167 0
DWIDTH 3 0
BBX 5 17 -1 0
BITMAP
001000
00D600
06FF40
6D2AD0
520060
000000
000000
091000
086000
05A000
01D000
00D100
00B300
00A600
008800
006A00
003A00
ENDCHAR
STARTCHAR Idieresis
ENCODING 207
SWIDTH 167 0
DWIDTH 3 0
BBX 5 13 -2 0
BITMAP
330420
CD0EA0
220210
009100
008600
005A00
001D00
000D10
000B30
000A60
000880
0006A0
0003A0
ENDCHAR
STARTCHAR Eth
ENCODING 208
SWIDTH 741 0
DWIDTH 13 0
BBX 13 13 0 -1
BITMAP
00344200000000
6ECBBFE9300000
31000D66DA1000
0000097008D200
00000780007D00
000029C8940B60
0000BBE77605B0
000000E00003C0
000000E20007A0
000000E2003F40
0000455017E900
00004DFDFC6000
00000012100000
ENDCHAR
STARTCHAR Ntilde
ENCODING 209
SWIDTH 609 0
DWIDTH 11 0
BBX 11 13 0 0
BITMAP
001992037000
00772BCC1000
004200210000
260000000000
3C000003B000
2F200001F600
2F6000009C00
3FC000001E20
4CC400000A50
683D10000970
7908A0000C40
7A00AD76BB00
580006BB8100
ENDCHAR
STARTCHAR Ograve
ENCODING 210
SWIDTH 609 0
DWIDTH 11 0
BBX 11 13 0 0
BITMAP
00005B100000
000007C00000
000000100000
000000000000
006A84000000
0BA68CD60000
5900003DA000
93000001C800
A30000001E20
780000000A60
2E4000000C50
06F82015CA00
003AEED94000
ENDCHAR
STARTCHAR Oacute
ENCODING 211
SWIDTH 609 0
DWIDTH 11 0
BBX 11 13 0 0
BITMAP
000006500000
0000AA100000
000390000000
000000000000
006A84000000
0BA68CD60000
5900003DA000
93000001C800
A30000001E20
780000000A60
2E4000000C50
06F82015CA00
003AEED94000
ENDCHAR
STARTCHAR Ocircumflex
ENCODING 212
SWIDTH 609 0
DWIDTH 11 0
BBX 11 15 0 0
BITMAP
000110000000
0008B0000000
002EF9000000
02D65F400000
034004200000
000000000000
006A84000000
0BA68CD60000
5900003DA000
93000001C800
A30000001E20
780000000A60
2E4000000C50
06F82015CA00
003AEED94000
ENDCHAR
STARTCHAR Otilde
ENCODING 213
SWIDTH 609 0
DWIDTH 11 0
BBX 11 12 0 0
BITMAP
018920370000
0672BCC10000
043002100000
006A84000000
0BA68CD60000
5900003DA000
93000001C800
A30000001E20
780000000A60
2E4000000C50
06F82015CA00
003AEED94000
ENDCHAR
STARTCHAR Odieresis
ENCODING 214
SWIDTH 609 0
DWIDTH 11 0
BBX 11 13 0 0
BITMAP
000340420000
000BD0EB0000
000120210000
000000000000
006A84000000
0BA68CD60000
5900003DA000
93000001C800
A30000001E20
780000000A60
2E4000000C50
06F82015CA00
003AEED94000
ENDCHAR
STARTCHAR multiply
ENCODING 215
SWIDTH 448 0
DWIDTH 8 0
BBX 6 5 1 1
BITMAP
A20191
5D7C70
07F700
1C8E30
670550
ENDCHAR
STARTCHAR Oslash
ENCODING 216
SWIDTH 609 0
DWIDTH 11 0
BBX 11 14 0 -2
BITMAP
000000320000
000000A40000
000000D10000
006A86B00000
0BA68DE50000
59000E5DA000
93004C01C800
A300A7001E20
7801E2000A60
2E45C0000C50
06FD7015CA00
006FEED94000
009800000000
008200000000
ENDCHAR
STARTCHAR Ugrave
ENCODING 217
SWIDTH 571 0
DWIDTH 10 0
BBX 10 13 0 0
BITMAP
0000970000
00001B7000
0000001000
1A10000400
5800000A50
7500000B70
7500000970
6700000690
49000002D0
1D000002F3
0B50001CF9
03E647D77E
005DEA2006
ENDCHAR
STARTCHAR Uacute
ENCODING 218
SWIDTH 571 0
DWIDTH 10 0
BBX 10 13 0 0
BITMAP
0000191000
0002D60000
0007500000
1A10000400
5800000A50
7500000B70
7500000970
6700000690
49000002D0
1D000002F3
0B50001CF9
03E647D77E
005DEA2006
ENDCHAR
STARTCHAR Ucircumflex
ENCODING 219
SWIDTH 571 0
DWIDTH 10 0
BBX 10 17 0 0
BITMAP
0000010000
00004E1000
0000CFC100
001BA3E700
0016002400
0000000000
0000000000
1A10000400
5800000A50
7500000B70
7500000970
6700000690
49000002D0
1D000002F3
0B50001CF9
03E647D77E
005DEA2006
ENDCHAR
STARTCHAR Udieresis
ENCODING 220
SWIDTH 571 0
DWIDTH 10 0
BBX 10 13 0 0
BITMAP
0005205100
001F84F600
0003103000
1A10000400
5800000A50
7500000B70
7500000970
6700000690
49000002D0
1D000002F3
0B50001CF9
03E647D77E
005DEA2006
ENDCHAR
STARTCHAR Yacute
ENCODING 221
SWIDTH 403 0
DWIDTH 7 0
BBX 7 16 0 -1
BITMAP
00002900
0004D400
00093000
50000000
960000B0
3E1002C0
08C10890
007E9E40
0003BD00
00009800
0000D200
0002D000
00059000
00067000
00078000
00012000
ENDCHAR
STARTCHAR Thorn
ENCODING 222
SWIDTH 497 0
DWIDTH 9 0
BBX 9 14 0 -3
BITMAP
1D10000000
2F10000000
2F00000000
1E00000000
0E01000000
0FEEEA4000
0E6016D900
0D30001C50
0D50000780
0CE6115E60
0B7BFFC600
0A40000000
0A40000000
0540000000
ENDCHAR
STARTCHAR germandbls
ENCODING 223
SWIDTH 590 0
DWIDTH 11 0
BBX 11 16 0 -3
BITMAP
067510000000
4FDBD9000000
6B0009900000
6C0004A00000
4D004C300000
2E0CFB000000
0E029ED40000
0C10005C8000
0A300000A700
084000001E20
075000001E40
06607779D900
077088751000
098000000000
0CA000000000
024000000000
ENDCHAR
STARTCHAR agrave
ENCODING 224
SWIDTH 505 0
DWIDTH 9 0
BBX 9 12 0 0
BITMAP
000B600000
0002C50000
0000110000
003DD60000
00224C8000
000001D500
0047757D00
1CC869FF30
8800004E60
9400000670
3D74356850
029DEEB610
ENDCHAR
STARTCHAR aacute
ENCODING 225
SWIDTH 505 0
DWIDTH 9 0
BBX 9 13 0 0
BITMAP
0000560000
0008B10000
002A000000
0000000000
003DD60000
00224C8000
000001D500
0047757D00
1CC869FF30
8800004E60
9400000670
3D74356850
029DEEB610
ENDCHAR
STARTCHAR acircumflex
ENCODING 226
SWIDTH 505 0
DWIDTH 9 0
BBX 9 14 0 0
BITMAP
0000100000
0000D60000
0006FF4000
006D2AD000
0052006000
003DD60000
00224C8000
000001D500
0047757D00
1CC869FF30
8800004E60
9400000670
3D74356850
029DEEB610
ENDCHAR
STARTCHAR atilde
ENCODING 227
SWIDTH 505 0
DWIDTH 9 0
BBX 9 13 0 0
BITMAP
02A8105500
0A44CCA000
0600020000
0000000000
003DD60000
00224C8000
000001D500
0047757D00
1CC869FF30
8800004E60
9400000670
3D74356850
029DEEB610
ENDCHAR
STARTCHAR adieresis
ENCODING 228
SWIDTH 505 0
DWIDTH 9 0
BBX 9 12 0 0
BITMAP
0025033000
009F1CD000
0012022000
003DD60000
00224C8000
000001D500
0047757D00
1CC869FF30
8800004E60
9400000670
3D74356850
029DEEB610
ENDCHAR
STARTCHAR aring
ENCODING 229
SWIDTH 505 0
DWIDTH 9 0
BBX 9 12 0 0
BITMAP
0004A60000
00180A1000
001A5A0000
003EF60000
00224C8000
000001D500
0047757D00
1CC869FF30
8800004E60
9400000670
3D74356850
029DEEB610
ENDCHAR
STARTCHAR ae
ENCODING 230
SWIDTH 881 0
DWIDTH 16 0
BBX 16 10 0 -1
BITMAP
003DD60007CC6000
00224C80A922D400
000001D9B0006700
0047757F5001B600
1CC869FF758E9000
8800004E88720000
9400000690000000
3D743568F8100000
029DEEB62AFCBCB3
0000000000256400
ENDCHAR
STARTCHAR ccedilla
ENCODING 231
SWIDTH 449 0
DWIDTH 8 0
BBX 8 14 0 -6
BITMAP
007CD910
0A800950
4B000220
97000000
A6000000
7A000000
1DA30000
02BEFFD5
00660000
002C5200
00016B80
004200E0
002D8890
00015300
ENDCHAR
STARTCHAR egrave
ENCODING 232
SWIDTH 515 0
DWIDTH 9 0
BBX 9 12 0 0
BITMAP
003C200000
0005D00000
0003500000
02CBAD1000
0C40087000
5900059000
96005D4000
A8CDC40000
8721000000
2D10000000
06D7322330
002AEFD810
ENDCHAR
STARTCHAR eacute
ENCODING 233
SWIDTH 515 0
DWIDTH 9 0
BBX 9 13 0 0
BITMAP
0000730000
001B900000
0057000000
0003400000
02CBAD1000
0C40087000
5900059000
96005D4000
A8CDC40000
8721000000
2D10000000
06D7322330
002AEFD810
ENDCHAR
STARTCHAR ecircumflex
ENCODING 234
SWIDTH 515 0
DWIDTH 9 0
BBX 9 14 0 0
BITMAP
0000100000
0000C70000
0005FF5000
005E39E000
0055406000
02CBAD1000
0C40087000
5900059000
96005D4000
A8CDC40000
8721000000
2D10000000
06D7322330
002AEFD810
ENDCHAR
STARTCHAR edieresis
ENCODING 235
SWIDTH 515 0
DWIDTH 9 0
BBX 9 12 0 0
BITMAP
0042051000
00EA2F7000
0024430000
02CBAD1000
0C40087000
5900059000
96005D4000
A8CDC40000
8721000000
2D10000000
06D7322330
002AEFD810
ENDCHAR
STARTCHAR igrave
ENCODING 236
SWIDTH 174 0
DWIDTH 3 0
BBX 3 11 0 0
BITMAP
6500
2D60
0140
0B00
0D00
0D20
0C40
0B70
0AA0
07B0
03A0
ENDCHAR
STARTCHAR iacute
ENCODING 237
SWIDTH 174 0
DWIDTH 3 0
BBX 4 12 -1 0
BITMAP
0001
01B5
1D60
1400
00B0
00D0
00D2
00C4
00B7
00AA
007B
003A
ENDCHAR
STARTCHAR icircumflex
ENCODING 238
SWIDTH 174 0
DWIDTH 3 0
BBX 5 14 -1 0
BITMAP
001000
00D600
06FF40
6E39E0
520060
000000
00B000
00D000
00D200
00C400
00B700
00AA00
007B00
003A00
ENDCHAR
STARTCHAR idieresis
ENCODING 239
SWIDTH 174 0
DWIDTH 3 0
BBX 5 11 -1 0
BITMAP
440530
CD0EA0
110210
00B000
00D000
00D200
00C400
00B700
00AA00
007B00
003A00
ENDCHAR
STARTCHAR eth
ENCODING 240
SWIDTH 407 0
DWIDTH 7 0
BBX 8 11 0 -1
BITMAP
27510000
68AE4170
0008FED1
00AE8E20
00343880
09C89ED0
5B0001D1
860000C0
5C2007B0
07EDED20
00023000
ENDCHAR
STARTCHAR ntilde
ENCODING 241
SWIDTH 459 0
DWIDTH 8 0
BBX 8 12 0 0
BITMAP
08930270
682BCC20
33002100
00000000
105BEA00
7DB32B90
7E1001E2
7B000098
5C00005B
3F00003E
0E30003E
0650003A
ENDCHAR
STARTCHAR ograve
ENCODING 242
SWIDTH 487 0
DWIDTH 9 0
BBX 9 10 0 0
BITMAP
0006A10000
00008A0000
0000010000
006CEE8000
0BA315D800
7800001D10
A400000C30
8700004F10
2D6128F700
02AEEB4000
ENDCHAR
STARTCHAR oacute
ENCODING 243
SWIDTH 487 0
DWIDTH 9 0
BBX 9 11 0 0
BITMAP
0000650000
0009B10000
0029000000
0000000000
006CEE8000
0BA315D800
7800001D10
A400000C30
8700004F10
2D6128F700
02AEEB4000
ENDCHAR
STARTCHAR ocircumflex
ENCODING 244
SWIDTH 487 0
DWIDTH 9 0
BBX 9 13 0 0
BITMAP
0000100000
0003E20000
000AFD1000
00AB2D9000
0060025000
0000000000
006CEE8000
0BA315D800
7800001D10
A400000C30
8700004F10
2D6128F700
02AEEB4000
ENDCHAR
STARTCHAR otilde
ENCODING 245
SWIDTH 487 0
DWIDTH 9 0
BBX 9 10 0 0
BITMAP
0199204600
0863CCB100
0510020000
006CEE8000
0BA315D800
7800001D10
A400000C30
8700004F10
2D6128F700
02AEEB4000
ENDCHAR
STARTCHAR odieresis
ENCODING 246
SWIDTH 487 0
DWIDTH 9 0
BBX 9 10 0 0
BITMAP
0033042000
00CC1F9000
0021031000
006CEE8000
0BA315D800
7800001D10
A400000C30
8700004F10
2D6128F700
02AEEB4000
ENDCHAR
STARTCHAR divide
ENCODING 247
SWIDTH 335 0
DWIDTH 6 0
BBX 6 5 0 1
BITMAP
005700
000200
19BCB2
243231
003400
ENDCHAR
STARTCHAR oslash
ENCODING 248
SWIDTH 487 0
DWIDTH 9 0
BBX 9 9 0 0
BITMAP
0000003000
000368C000
03DCAFD200
2D407C9B00
8602E30D20
A40C800D30
887C006F10
1EF428F700
0CBEEB4000
ENDCHAR
STARTCHAR ugrave
ENCODING 249
SWIDTH 501 0
DWIDTH 9 0
BBX 9 12 0 0
BITMAP
0079000000
0009A00000
0000100000
6400000000
B400008500
A300009800
9600009A00
6A0000AB00
1E2003FD00
07C23D6D30
008ED40880
0000000260
ENDCHAR
STARTCHAR uacute
ENCODING 250
SWIDTH 501 0
DWIDTH 9 0
BBX 9 12 0 0
BITMAP
0000560000
0008B10000
001A000000
6400000000
B400008500
A300009800
9600009A00
6A0000AB00
1E2003FD00
07C23D6D30
008ED40880
0000000260
ENDCHAR
STARTCHAR ucircumflex
ENCODING 251
SWIDTH 501 0
DWIDTH 9 0
BBX 9 14 0 0
BITMAP
0000100000
0000E60000
0006FF3000
006D2AD000
0052006000
6400000000
B400008500
A300009800
9600009A00
6A0000AB00
1E2003FD00
07C23D6D30
008ED40880
0000000260
ENDCHAR
STARTCHAR udieresis
ENCODING 252
SWIDTH 501 0
DWIDTH 9 0
BBX 9 12 0 0
BITMAP
0051050000
02F75F5000
0030030000
6400000000
B400008500
A300009800
9600009A00
6A0000AB00
1E2003FD00
07C23D6D30
008ED40880
0000000260
ENDCHAR
STARTCHAR yacute
ENCODING 253
SWIDTH 487 0
DWIDTH 9 0
BBX 9 21 0 -9
BITMAP
0000650000
000AA00000
0039000000
0000000000
6000000700
A200001B00
9400000E00
7800000F10
2D00000E30
0A60007F50
01D86BBC60
0017940660
0000000570
0000000670
0000000760
0000000950
0000000B30
2B00000E10
0CB1005A00
01BD77E300
0004AB5000
ENDCHAR
STARTCHAR thorn
ENCODING 254
SWIDTH 520 0
DWIDTH 9 0
BBX 9 14 0 -4
BITMAP
0100000000
1C00000000
3A00000000
4827997200
5DE955AE30
5E100007C0
5C000001F0
6D641029D0
7DBEFFFC30
7A00000000
8900000000
7900000000
6A00000000
1300000000
ENDCHAR
STARTCHAR ydieresis
ENCODING 255
SWIDTH 487 0
DWIDTH 9 0
BBX 9 20 0 -9
BITMAP
0052051000
01F84F5000
0030030000
6000000700
A200001B00
9400000E00
7800000F10
2D00000E30
0A60007F50
01D86BBC60
0017940660
0000000570
0000000670
0000000760
0000000950
0000000B30
2B00000E10
0CB1005A00
01BD77E300
0004AB5000
ENDCHAR
STARTCHAR Amacron
ENCODING 256
SWIDTH 562 0
DWIDTH 10 0
BBX 10 16 0 0
BITMAP
0049AB5000
0088555000
0006A82000
00B736E300
0580004C00
0A20000A50
0B000004A0
0B000000D0
1A000000C2
2A000000B5
7FDBBBCBF7
1D00000188
0D00000069
0F1000006A
0C30000099
07500000A5
ENDCHAR
STARTCHAR amacron
ENCODING 257
SWIDTH 505 0
DWIDTH 9 0
BBX 9 12 0 0
BITMAP
005AAA4000
0097564000
0000000000
003DD60000
00224C8000
000001D500
0047757D00
1CC869FF30
8800004E60
9400000670
3D74356850
029DEEB610
ENDCHAR
STARTCHAR Abreve
ENCODING 258
SWIDTH 562 0
DWIDTH 10 0
BBX 10 17 0 0
BITMAP
000632A000
0001AA2000
0000000000
0006A82000
00B736E300
0580004C00
0A20000A50
0B000004A0
0B000000D0
1A000000C2
2A000000B5
7FDBBBCBF7
1D00000188
0D00000069
0F1000006A
0C30000099
07500000A5
ENDCHAR
STARTCHAR abreve
ENCODING 259
SWIDTH 505 0
DWIDTH 9 0
BBX 9 12 0 0
BITMAP
00441B0000
0019A30000
0000000000
003DD60000
00224C8000
000001D500
0047757D00
1CC869FF30
8800004E60
9400000670
3D74356850
029DEEB610
ENDCHAR
STARTCHAR Aogonek
ENCODING 260
SWIDTH 562 0
DWIDTH 10 0
BBX 10 17 0 -3
BITMAP
0006A82000
00B736E300
0580004C00
0A20000A50
0B000004A0
0B000000D0
1A000000C2
2A000000B5
7FDBBBCBF7
1D00000188
0D00000069
0F1000006A
0C30000099
07500006E5
0000004B10
0000006B21
0000000588
ENDCHAR
STARTCHAR aogonek
ENCODING 261
SWIDTH 505 0
DWIDTH 9 0
BBX 9 12 0 -3
BITMAP
003DD60000
00224C8000
000001D500
0047757D00
1CC869FF30
8800004E60
9400000670
3D74356850
029DEFC610
00000E0000
00000AB830
0000001100
ENDCHAR
STARTCHAR Cacute
ENCODING 262
SWIDTH 515 0
DWIDTH 9 0
BBX 9 15 0 0
BITMAP
0000056000
00009B1000
0002900000
0000388000
0008E9E100
00AA109000
0690000000
0B00000000
5500000000
9300000000
A300000000
8600000000
4B00000000
0C93469C80
02BFDA7400
ENDCHAR
STARTCHAR cacute
ENCODING 263
SWIDTH 449 0
DWIDTH 8 0
BBX 8 12 0 0
BITMAP
00003800
0006D200
000B1000
00000000
008DDA10
0A700850
5B000220
96000000
A6000000
7B000000
1DA31000
018DFFD5
ENDCHAR
STARTCHAR Ccircumflex
ENCODING 264
SWIDTH 515 0
DWIDTH 9 0
BBX 9 17 0 0
BITMAP
0000100000
0000C70000
0005FF5000
005E39E000
0052006000
0000388000
0008E9E100
00AA109000
0690000000
0B00000000
5500000000
9300000000
A300000000
8600000000
4B00000000
0C93469C80
02BFDA7400
ENDCHAR
STARTCHAR ccircumflex
ENCODING 265
SWIDTH 449 0
DWIDTH 8 0
BBX 8 14 0 0
BITMAP
00001000
0006D100
001DFB00
01C83E50
02500330
00000000
008DDA10
0A700850
5B000220
96000000
A6000000
7B000000
1DA31000
018DFFD5
ENDCHAR
STARTCHAR Cdotaccent
ENCODING 266
SWIDTH 515 0
DWIDTH 9 0
BBX 9 14 0 0
BITMAP
0000940000
0000640000
0000388000
0008E9E100
00AA109000
0690000000
0B00000000
5500000000
9300000000
A300000000
8600000000
4B00000000
0C93469C80
02BFDA7400
ENDCHAR
STARTCHAR cdotaccent
ENCODING 267
SWIDTH 449 0
DWIDTH 8 0
BBX 8 10 0 0
BITMAP
00085000
00045000
008DDA10
0A700850
5B000220
96000000
A6000000
7B000000
1DA31000
018DFFD5
ENDCHAR
STARTCHAR Ccaron
ENCODING 268
SWIDTH 515 0
DWIDTH 9 0
BBX 9 15 0 0
BITMAP
0007828A00
00005F9100
0000020000
0000388000
0008E9E100
00AA109000
0690000000
0B00000000
5500000000
9300000000
A300000000
8600000000
4B00000000
0C93469C80
02BFDA7400
ENDCHAR
STARTCHAR ccaron
ENCODING 269
SWIDTH 449 0
DWIDTH 8 0
BBX 8 11 0 0
BITMAP
01A53B50
000AE600
00011000
008DDA10
0A700850
5B000220
96000000
A6000000
7B000000
1DA31000
018DFFD5
ENDCHAR
STARTCHAR Dcaron
ENCODING 270
SWIDTH 741 0
DWIDTH 13 0
BBX 13 15 0 -1
BITMAP
00004A26C00000
000002EC200000
00344220000000
6ECBBFE9300000
31000B76DA1000
0000087008D200
00000590007D00
000003B0000B60
000002E00005B0
000001F10003C0
000000F20007A0
000000E2003F40
0000454017E900
00004DFDFC6000
00000012100000
ENDCHAR
STARTCHAR dcaron
ENCODING 271
SWIDTH 582 0
DWIDTH 10 0
BBX 11 13 0 0
BITMAP
000001B00B00
000000F50F00
000000BB0E20
0000007E0B20
0000004F3100
03DEB41F5000
1EC67DAF6000
6D1001AF8000
9800002F9000
9700007FA000
6C0004ECB000
1E748E53E000
03DEA3003000
ENDCHAR
STARTCHAR Dcroat
ENCODING 272
SWIDTH 741 0
DWIDTH 13 0
BBX 13 13 0 -1
BITMAP
00344200000000
6ECBBFE9300000
31000B76DA1000
0000087008D200
00000580007D00
000004B2000B60
0002EEFE4005B0
000121F10003C0
000000F20007A0
000000E2003F40
0000454017E900
00004DFDFC6000
00000012100000
ENDCHAR
STARTCHAR dcroat
ENCODING 273
SWIDTH 524 0
DWIDTH 9 0
BBX 10 13 0 0
BITMAP
000001C100
000000F600
000058ED92
0002A9AF74
0001003F30
04EFD51F50
1EB46CBF70
6D00008F80
9800002F90
9700007FA0
6C0004ECC0
1D748E53E0
03DEA30030
ENDCHAR
STARTCHAR Emacron
ENCODING 274
SWIDTH 524 0
DWIDTH 9 0
BBX 9 14 0 0
BITMAP
0039AB6000
0078556000
0211000000
6FFEEDDC20
6900000010
6900000000
6900001200
8C79BDD700
8B64310000
8500000000
9500000000
A500000000
7823457830
1AEFFEDA20
ENDCHAR
STARTCHAR emacron
ENCODING 275
SWIDTH 515 0
DWIDTH 9 0
BBX 9 12 0 0
BITMAP
0039AB6000
0078555000
0003400000
02CBAD1000
0C40087000
5900059000
96005D4000
A8CDC40000
8721000000
2D10000000
06D7322330
002AEFD810
ENDCHAR
STARTCHAR Ebreve
ENCODING 276
SWIDTH 524 0
DWIDTH 9 0
BBX 9 14 0 0
BITMAP
00171A1000
0006B60000
0211000000
6FFEEDDC20
6900000010
6900000000
6900001200
8C79BDD700
8B64310000
8500000000
9500000000
A500000000
7823457830
1AEFFEDA20
ENDCHAR
STARTCHAR ebreve
ENCODING 277
SWIDTH 515 0
DWIDTH 9 0
BBX 9 12 0 0
BITMAP
0007239000
0002A91000
0003400000
02CBAD1000
0C40087000
5900059000
96005D4000
A8CDC40000
8721000000
2D10000000
06D7322330
002AEFD810
ENDCHAR
STARTCHAR Edotaccent
ENCODING 278
SWIDTH 524 0
DWIDTH 9 0
BBX 9 14 0 0
BITMAP
0002B00000
0000900000
0211000000
6FFEEDDC20
6900000010
6900000000
6900001200
8C79BDD700
8B64310000
8500000000
9500000000
A500000000
7823457830
1AEFFEDA20
ENDCHAR
STARTCHAR edotaccent
ENCODING 279
SWIDTH 515 0
DWIDTH 9 0
BBX 9 12 0 0
BITMAP
0008500000
0004500000
0003400000
02CBAD1000
0C40087000
5900059000
96005D4000
A8CDC40000
8721000000
2D10000000
06D7322330
002AEFD810
ENDCHAR
STARTCHAR Eogonek
ENCODING 280
SWIDTH 524 0
DWIDTH 9 0
BBX 9 15 0 -3
BITMAP
0211000000
6FFEEDDC20
6900000010
6900000000
6900001200
8C79BDD700
8B64310000
8500000000
9500000000
A500000000
7823457830
1AEFFFFA20
00002D2000
00003C3100
0000047810
ENDCHAR
STARTCHAR eogonek
ENCODING 281
SWIDTH 515 0
DWIDTH 9 0
BBX 9 13 0 -3
BITMAP
0003400000
02CBAD1000
0C40087000
5900059000
96005D4000
A8CDC40000
8721000000
2D10000000
06D7322330
002AEFE810
00006A0000
00006B3100
0000047700
ENDCHAR
STARTCHAR Ecaron
ENCODING 282
SWIDTH 524 0
DWIDTH 9 0
BBX 9 14 0 0
BITMAP
004A35C100
0002DC3000
0211210000
6FFEEDDC20
6900000010
6900000000
6900001200
8C79BDD700
8B64310000
8500000000
9500000000
A500000000
7823457830
1AEFFEDA20
ENDCHAR
STARTCHAR ecaron
ENCODING 283
SWIDTH 515 0
DWIDTH 9 0
BBX 9 12 0 0
BITMAP
005A26C000
0002EC2000
0003510000
02CBAD1000
0C40087000
5900059000
96005D4000
A8CDC40000
8721000000
2D10000000
06D7322330
002AEFD810
ENDCHAR
STARTCHAR Gcircumflex
ENCODING 284
SWIDTH 571 0
DWIDTH 10 0
BBX 10 17 0 -2
BITMAP
0000001000
000000D700
000005FF40
00005E39E0
0000520060
0000002540
00006CB9C4
002C810000
02D3000000
0B40220220
4B005CCCE5
6700000077
4A000000A7
0C93235BF7
019CCA64A7
000000007D
0000000002
ENDCHAR
STARTCHAR gcircumflex
ENCODING 285
SWIDTH 366 0
DWIDTH 7 0
BBX 10 23 -3 -9
BITMAP
0000001000
000002F300
000009FD20
00009C2CA0
0000610150
0000000000
0000004400
00001BAC50
0000B503C0
0004A001F1
00096002F3
00097006F4
0003E9AFF5
00003872E6
00000000B6
0000000097
0000000078
0000000069
4800000078
4B00000096
09C40000E3
006ED96BB0
000059BA10
ENDCHAR
STARTCHAR Gbreve
ENCODING 286
SWIDTH 571 0
DWIDTH 10 0
BBX 10 14 0 -2
BITMAP
000532A000
00019A2000
0000002540
00006CB9C4
002C810000
02D3000000
0B40220220
4B005CCCE5
6700000077
4A000000A7
0C93235BF7
019CCA64A7
000000007D
0000000002
ENDCHAR
STARTCHAR gbreve
ENCODING 287
SWIDTH 366 0
DWIDTH 7 0
BBX 10 19 -3 -9
BITMAP
0000441B00
000009A300
0000004400
00001BAC50
0000B503C0
0004A001F1
00096002F3
00097006F4
0003E9AFF5
00003872E6
00000000B6
0000000097
0000000078
0000000069
4800000078
4B00000096
09C40000E3
006ED96BB0
000059BA10
ENDCHAR
STARTCHAR Gdotaccent
ENCODING 288
SWIDTH 571 0
DWIDTH 10 0
BBX 10 14 0 -2
BITMAP
0000049000
0000018000
0000002540
00006CB9C4
002C810000
02D3000000
0B40220220
4B005CCCE5
6700000077
4A000000A7
0C93235BF7
019CCA64A7
000000007D
0000000002
ENDCHAR
STARTCHAR gdotaccent
ENCODING 289
SWIDTH 366 0
DWIDTH 7 0
BBX 10 19 -3 -9
BITMAP
0000049000
0000027000
0000004400
00001BAC50
0000B503C0
0004A001F1
00096002F3
00097006F4
0003E9AFF5
00003872E6
00000000B6
0000000097
0000000078
0000000069
4800000078
4B00000096
09C40000E3
006ED96BB0
000059BA10
ENDCHAR
STARTCHAR Gcommaaccent
ENCODING 290
SWIDTH 571 0
DWIDTH 10 0
BBX 10 16 0 -6
BITMAP
0000002540
00006CB9C4
002C810000
02D3000000
0B40220220
4B005CCCE5
6700000077
4A000000A7
0C93235BF7
019CCA64A7
000000007D
0000110002
00008A0000
00004C0000
00007A0000
0000630000
ENDCHAR
STARTCHAR gcommaaccent
ENCODING 291
SWIDTH 366 0
DWIDTH 7 0
BBX 10 25 -3 -9
BITMAP
0000047000
000004B000
000003D000
000000D000
0000002000
0000000000
0000000000
0000000000
0000004400
00001BAC50
0000B503C0
0004A001F1
00096002F3
00097006F4
0003E9AFF5
00003872E6
00000000B6
0000000097
0000000078
0000000069
4800000078
4B00000096
09C40000E3
006ED96BB0
000059BA10
ENDCHAR
STARTCHAR Hcircumflex
ENCODING 292
SWIDTH 524 0
DWIDTH 9 0
BBX 9 18 0 0
BITMAP
0000100000
0000C80000
0004FF5000
005E38E100
0053006000
0000000010
3300000850
5700000940
4900000940
3A00000A40
2C00001C40
1E0029EE50
0F5AD71960
6FD7100860
1D50000780
0960000690
08600005B0
04400001C0
ENDCHAR
STARTCHAR hcircumflex
ENCODING 293
SWIDTH 427 0
DWIDTH 8 0
BBX 8 15 -1 0
BITMAP
00000100
00006D10
2501DFB0
2D1C83E6
0D550033
09700000
07902000
04DDFE50
02F736D1
01D00068
00E0002C
00D1001E
00C3002F
00B5002F
0094003B
ENDCHAR
STARTCHAR hbar
ENCODING 295
SWIDTH 427 0
DWIDTH 8 0
BBX 9 13 -2 0
BITMAP
0250000000
02D0000000
00D4000000
3DFFE20000
2479220000
004DDFE500
002F736D10
001D000680
000E0002C0
000D1001E0
000C3002F0
000B5002F0
00094003B0
ENDCHAR
STARTCHAR Itilde
ENCODING 296
SWIDTH 167 0
DWIDTH 3 0
BBX 7 13 -2 0
BITMAP
08930270
682BCC20
33002100
00910000
00860000
005A0000
001D0000
000D1000
000B3000
000A6000
00088000
0006A000
0003A000
ENDCHAR
STARTCHAR itilde
ENCODING 297
SWIDTH 174 0
DWIDTH 3 0
BBX 7 12 -1 0
BITMAP
4B810830
C14CD700
60001000
00000000
00B00000
00D00000
00D20000
00C40000
00B70000
00AA0000
007B0000
003A0000
ENDCHAR
STARTCHAR imacron
ENCODING 299
SWIDTH 174 0
DWIDTH 3 0
BBX 5 11 -1 0
BITMAP
5BCC80
663340
000000
00B000
00D000
00D200
00C400
00B700
00AA00
007B00
003A00
ENDCHAR
STARTCHAR Ibreve
ENCODING 300
SWIDTH 167 0
DWIDTH 3 0
BBX 4 14 0 0
BITMAP
8184
5B70
0000
0000
9100
8600
5A00
1D00
0D10
0B30
0A60
0880
06A0
03A0
ENDCHAR
STARTCHAR ibreve
ENCODING 301
SWIDTH 174 0
DWIDTH 3 0
BBX 4 11 -1 0
BITMAP
240A
0AC6
0000
00B0
00D0
00D2
00C4
00B7
00AA
007B
003A
ENDCHAR
STARTCHAR Iogonek
ENCODING 302
SWIDTH 167 0
DWIDTH 3 0
BBX 4 13 0 -3
BITMAP
9100
8600
5A00
1D00
0D10
0B30
0A60
0880
06A0
2BA0
C400
E510
2783
ENDCHAR
STARTCHAR iogonek
ENCODING 303
SWIDTH 174 0
DWIDTH 3 0
BBX 5 14 -1 -3
BITMAP
092000
032000
000000
00B000
00D000
00D200
00C400
00B700
00AA00
007B00
03BA00
1D3000
3D2000
058920
ENDCHAR
STARTCHAR Idotaccent
ENCODING 304
SWIDTH 167 0
DWIDTH 3 0
BBX 4 13 -1 0
BITMAP
2B00
0900
0000
0910
0860
05A0
01D0
00D1
00B3
00A6
0088
006A
003A
ENDCHAR
STARTCHAR dotlessi
ENCODING 305
SWIDTH 174 0
DWIDTH 3 0
BBX 2 8 1 0
BITMAP
B0
D0
D2
C4
B7
AA
7B
3A
ENDCHAR
STARTCHAR Jcircumflex
ENCODING 308
SWIDTH 439 0
DWIDTH 8 0
BBX 9 18 0 0
BITMAP
0000011000
000008B000
00002EF900
0002D65F30
0003400420
0000023000
0000049000
000002D000
000000F100
000000D300
000000A500
1200008700
8500007800
5A00006900
0940006800
00B4008700
001B71C300
00008EA000
ENDCHAR
STARTCHAR jcircumflex
ENCODING 309
SWIDTH 200 0
DWIDTH 4 0
BBX 7 22 -2 -8
BITMAP
00010000
000AA000
003EF700
03E56F20
03400520
00000000
00000000
00084000
00069000
0004D000
0002F200
0000E400
0000B700
00009900
00006B00
00004D00
B0002E00
C5000F00
6C000F00
0C700E00
02D98D00
0019F700
ENDCHAR
STARTCHAR Kcommaaccent
ENCODING 310
SWIDTH 468 0
DWIDTH 8 0
BBX 8 17 0 -6
BITMAP
40000610
A301B900
850AA000
678B0000
4CC10000
3F300000
2FC10000
2CAC1000
2D07D500
0F003CA1
0B10008C
00000000
00001000
0007B000
0003D000
0006B000
00054000
ENDCHAR
STARTCHAR kcommaaccent
ENCODING 311
SWIDTH 403 0
DWIDTH 7 0
BBX 8 17 0 -6
BITMAP
90000000
C0000000
B3000000
87009800
5A069000
3D590000
1FD10000
0F900000
0FE30000
0F7DB640
1D017CC1
00000000
00010000
001F2000
000C4000
001E2000
00180000
ENDCHAR
STARTCHAR Lacute
ENCODING 313
SWIDTH 346 0
DWIDTH 6 0
BBX 6 13 0 0
BITMAP
000074
001B90
004800
060000
2D0000
4C0000
6A0000
880000
960000
A50000
A60000
6C5321
07DFFC
ENDCHAR
STARTCHAR lacute
ENCODING 314
SWIDTH 120 0
DWIDTH 2 0
BBX 4 14 -1 0
BITMAP
0065
0AA0
3900
0000
0750
0880
0890
0890
08A0
08A0
08A0
07A0
0690
0570
ENDCHAR
STARTCHAR Lcommaaccent
ENCODING 315
SWIDTH 346 0
DWIDTH 6 0
BBX 6 16 0 -6
BITMAP
060000
2D0000
4C0000
6A0000
880000
960000
A50000
A60000
6C5321
07DFFC
000000
001000
008A00
004B00
007A00
006300
ENDCHAR
STARTCHAR lcommaaccent
ENCODING 316
SWIDTH 120 0
DWIDTH 2 0
BBX 2 16 0 -6
BITMAP
75
88
89
89
8A
8A
8A
7A
69
57
00
10
99
4B
89
63
ENDCHAR
STARTCHAR Lcaron
ENCODING 317
SWIDTH 346 0
DWIDTH 6 0
BBX 6 13 0 0
BITMAP
000B00
000D20
000C40
060940
2D0110
4C0000
6A0000
880000
960000
A50000
A60000
6C5321
07DFFC
ENDCHAR
STARTCHAR lcaron
ENCODING 318
SWIDTH 222 0
DWIDTH 4 0
BBX 4 13 0 0
BITMAP
0074
0078
006A
753A
8802
8900
8900
8A00
8A00
8A00
7A00
6900
5700
ENDCHAR
STARTCHAR Ldot
ENCODING 319
SWIDTH 346 0
DWIDTH 6 0
BBX 6 10 0 0
BITMAP
060000
2D0000
4C0000
6A0000
881100
96CE10
A58A10
A60000
6C5321
07DFFC
ENDCHAR
STARTCHAR ldot
ENCODING 320
SWIDTH 333 0
DWIDTH 6 0
BBX 6 10 0 0
BITMAP
750000
880000
890000
890000
8A0110
8A0CF2
8A08A1
7A0000
690000
570000
ENDCHAR
STARTCHAR Lslash
ENCODING 321
SWIDTH 346 0
DWIDTH 6 0
BBX 7 10 0 0
BITMAP
01700000
05A00000
08900000
09700000
0B610000
0CF60000
9F600000
3D300000
08C76420
007CDD70
ENDCHAR
STARTCHAR lslash
ENCODING 322
SWIDTH 120 0
DWIDTH 2 0
BBX 5 11 -2 0
BITMAP
002300
005A00
005B00
005B00
006EC0
00AE50
1CBD00
125D00
005C00
003B00
001600
ENDCHAR
STARTCHAR Nacute
ENCODING 323
SWIDTH 609 0
DWIDTH 11 0
BBX 11 13 0 0
BITMAP
000006500000
0000AA100000
000390000000
260000000000
3C000003B000
2F200001F600
2F6000009C00
3FC000001E20
4CC400000A50
683D10000970
7908A0000C40
7A00AD76BB00
580006BB8100
ENDCHAR
STARTCHAR nacute
ENCODING 324
SWIDTH 459 0
DWIDTH 8 0
BBX 8 12 0 0
BITMAP
00029000
004D4000
00930000
00000000
105BEA00
7DB32B90
7E1001E2
7B000098
5C00005B
3F00003E
0E30003E
0650003A
ENDCHAR
STARTCHAR Ncommaaccent
ENCODING 325
SWIDTH 609 0
DWIDTH 11 0
BBX 11 16 0 -6
BITMAP
260000000000
3C000003B000
2F200001F600
2F6000009C00
3FC000001E20
4CC400000A50
683D10000970
7908A0000C40
7A00AD76BB00
580006BB8100
000000000000
000001000000
00003F100000
00000E200000
00002E100000
000026000000
ENDCHAR
STARTCHAR ncommaaccent
ENCODING 326
SWIDTH 459 0
DWIDTH 8 0
BBX 8 14 0 -6
BITMAP
105BEA00
7DB32B90
7E1001E2
7B000098
5C00005B
3F00003E
0E30003E
0650003A
00000000
00010000
0008A000
0004B000
0007A000
00063000
ENDCHAR
STARTCHAR Ncaron
ENCODING 327
SWIDTH 609 0
DWIDTH 11 0
BBX 11 14 0 0
BITMAP
0006927A0000
00004FA10000
000002000000
000000000000
260000000000
3C000003B000
2F200001F600
2F6000009C00
3FC000001E20
4CC400000A50
683D10000970
7908A0000C40
7A00AD76BB00
580006BB8100
ENDCHAR
STARTCHAR ncaron
ENCODING 328
SWIDTH 459 0
DWIDTH 8 0
BBX 8 11 0 0
BITMAP
01962A60
0008F700
00001000
105BEA00
7DB32B90
7E1001E2
7B000098
5C00005B
3F00003E
0E30003E
0650003A
ENDCHAR
STARTCHAR napostrophe
ENCODING 329
SWIDTH 459 0
DWIDTH 8 0
BBX 8 13 0 0
BITMAP
00100000
06C00000
02D00000
05C00000
05400000
105BEA00
7DB32B90
7E1001E2
7B000098
5C00005B
3F00003E
0E30003E
0650003A
ENDCHAR
STARTCHAR Omacron
ENCODING 332
SWIDTH 609 0
DWIDTH 11 0
BBX 11 13 0 0
BITMAP
00049AB60000
000885550000
000000000000
000000000000
006A84000000
0BA68CD60000
5900003DA000
93000001C800
A30000001E20
780000000A60
2E4000000C50
06F82015CA00
003AEED94000
ENDCHAR
STARTCHAR omacron
ENCODING 333
SWIDTH 487 0
DWIDTH 9 0
BBX 9 10 0 0
BITMAP
0059AA4000
0097564000
0000000000
006CEE8000
0BA315D800
7800001D10
A400000C30
8700004F10
2D6128F700
02AEEB4000
ENDCHAR
STARTCHAR Obreve
ENCODING 334
SWIDTH 609 0
DWIDTH 11 0
BBX 11 12 0 0
BITMAP
000171B10000
00007B500000
000000000000
006A84000000
0BA68CD60000
5900003DA000
93000001C800
A30000001E20
780000000A60
2E4000000C50
06F82015CA00
003AEED94000
ENDCHAR
STARTCHAR obreve
ENCODING 335
SWIDTH 487 0
DWIDTH 9 0
BBX 9 11 0 0
BITMAP
0081750000
004B800000
0000000000
0000000000
006CEE8000
0BA315D800
7800001D10
A400000C30
8700004F10
2D6128F700
02AEEB4000
ENDCHAR
STARTCHAR Ohungarumlaut
ENCODING 336
SWIDTH 609 0
DWIDTH 11 0
BBX 11 14 0 0
BITMAP
000010000000
0003D3A20000
000B4A800000
000103000000
000000000000
006A84000000
0BA68CD60000
5900003DA000
93000001C800
A30000001E20
780000000A60
2E4000000C50
06F82015CA00
003AEED94000
ENDCHAR
STARTCHAR ohungarumlaut
ENCODING 337
SWIDTH 487 0
DWIDTH 9 0
BBX 9 11 0 0
BITMAP
0001000000
004D3A1000
00C3C60000
0010300000
006CEE8000
0BA315D800
7800001D10
A400000C30
8700004F10
2D6128F700
02AEEB4000
ENDCHAR
STARTCHAR OE
ENCODING 338
SWIDTH 848 0
DWIDTH 15 0
BBX 15 9 0 0
BITMAP
007B930777666610
0B957E8E55544440
690003FE00000000
A30000AE00135710
9300006FA9976200
7800004B00000000
1E50007A00000000
05F932DB00011220
003ADE99DEFFEC70
ENDCHAR
STARTCHAR oe
ENCODING 339
SWIDTH 875 0
DWIDTH 16 0
BBX 16 10 0 -1
BITMAP
0000000005982000
000366109A46D100
03DC9DD7A000A400
2D40009F3000B400
8600000E425C9000
A400000E9B940000
8800006F50000000
1D7128F9D3000000
02AEEB405EC87892
0000000001699720
ENDCHAR
STARTCHAR Racute
ENCODING 340
SWIDTH 579 0
DWIDTH 10 0
BBX 11 16 -1 -1
BITMAP
000000190000
000003D50000
000008300000
000233200000
08ECCCEE9100
2C100002AD10
030700000A50
000C10005E50
000B87AED600
0009EA730000
0007F4000000
0004BD200000
0001B3C30000
0000B02C5000
00006101BA20
000000000690
ENDCHAR
STARTCHAR racute
ENCODING 341
SWIDTH 346 0
DWIDTH 6 0
BBX 6 12 0 0
BITMAP
000380
006D20
00B100
000100
37CEFA
AB1025
970000
780000
4C0000
1E2000
0B6000
046000
ENDCHAR
STARTCHAR Rcommaaccent
ENCODING 342
SWIDTH 579 0
DWIDTH 10 0
BBX 11 18 -1 -6
BITMAP
000233200000
08ECCCEE9100
2C100002AD10
030700000A50
000C10005E50
000B87AED600
0009EA730000
0007F4000000
0004BD200000
0001B3C30000
0000B02C5000
00006101BA20
000000000690
000000100000
000006C00000
000001E00000
000005C00000
000004400000
ENDCHAR
STARTCHAR rcommaaccent
ENCODING 343
SWIDTH 346 0
DWIDTH 6 0
BBX 6 15 0 -6
BITMAP
000100
37CEFA
AB1025
970000
780000
4C0000
1E2000
0B6000
046000
000000
001000
008A00
004B00
007A00
006300
ENDCHAR
STARTCHAR Rcaron
ENCODING 344
SWIDTH 579 0
DWIDTH 10 0
BBX 11 16 -1 -1
BITMAP
0001962A6000
000008F70000
000000200000
000233200000
08ECCCEE9100
2C100002AD10
030700000A50
000C10005E50
000B87AED600
0009EA730000
0007F4000000
0004BD200000
0001B3C30000
0000B02C5000
00006101BA20
000000000690
ENDCHAR
STARTCHAR rcaron
ENCODING 345
SWIDTH 346 0
DWIDTH 6 0
BBX 6 11 0 0
BITMAP
1962A7
008F70
000300
37CEFA
AB1025
970000
780000
4C0000
1E2000
0B6000
046000
ENDCHAR
STARTCHAR Sacute
ENCODING 346
SWIDTH 627 0
DWIDTH 11 0
BBX 11 16 0 -1
BITMAP
000002900000
00004D400000
000093000000
000000000000
00049CB94000
005B4115D800
009400000200
005B10000000
0006D6000000
000018D71000
1100002AD500
860000003C50
5B00000005C0
07B410001A90
0029DEDED810
000001110000
ENDCHAR
STARTCHAR sacute
ENCODING 347
SWIDTH 514 0
DWIDTH 9 0
BBX 9 13 0 0
BITMAP
0000074000
0001B90000
0004700000
0000000000
0002100000
08ECDA0000
4C10094000
2C10051000
05CB985100
0001359E30
21000008A0
5D61002B90
04ADFFE910
ENDCHAR
STARTCHAR Scircumflex
ENCODING 348
SWIDTH 627 0
DWIDTH 11 0
BBX 11 18 0 -1
BITMAP
000001000000
00000C800000
00004FF50000
0005E38E1000
000530060000
000000000000
00049CB94000
005B4115D800
009400000200
005B10000000
0006D6000000
000018D71000
1100002AD500
860000003C50
5B00000005C0
07B410001A90
0029DEDED810
000001110000
ENDCHAR
STARTCHAR scircumflex
ENCODING 349
SWIDTH 514 0
DWIDTH 9 0
BBX 9 14 0 0
BITMAP
0000100000
0000C70000
0005FF5000
005E39E000
0052006000
0002100000
08ECDA0000
4C10094000
2C10051000
05CB985100
0001359E30
21000008A0
5D61002B90
04ADFFE910
ENDCHAR
STARTCHAR Scedilla
ENCODING 350
SWIDTH 627 0
DWIDTH 11 0
BBX 11 17 0 -6
BITMAP
00049CB94000
005B4115D800
009400000200
005B10000000
0006D6000000
000018D71000
1100002AD500
860000003C50
5B00000005C0
07A410001A90
002AEEDED810
000661110000
0002B3100000
000038C70000
0003101E0000
0003D65B0000
000027610000
ENDCHAR
STARTCHAR scedilla
ENCODING 351
SWIDTH 514 0
DWIDTH 9 0
BBX 9 15 0 -6
BITMAP
0002100000
08ECDA0000
4C10094000
2C10051000
05CB985100
0001359E30
21000008A0
4D61002B90
04BEFFE910
0066000000
003B310000
00038C7000
003101E000
003D65B000
0002761000
ENDCHAR
STARTCHAR Scaron
ENCODING 352
SWIDTH 627 0
DWIDTH 11 0
BBX 11 15 0 -1
BITMAP
0005A26C0000
00002EC20000
000002000000
00049CB94000
005B4115D800
009400000200
005B10000000
0006D6000000
000018D71000
1100002AD500
860000003C50
5B00000005C0
07B410001A90
0029DEDED810
000001110000
ENDCHAR
STARTCHAR scaron
ENCODING 353
SWIDTH 514 0
DWIDTH 9 0
BBX 9 11 0 0
BITMAP
005A26C000
0002EC2000
0002300000
08ECDA0000
4C10094000
2C10051000
05CB985100
0001359E30
21000008A0
5D61002B90
04ADFFE910
ENDCHAR
STARTCHAR Tcommaaccent
ENCODING 354
SWIDTH 581 0
DWIDTH 10 0
BBX 12 18 0 -6
BITMAP
333322100000
69BDEFFEEC94
000006801478
000005800000
000004A00000
000003B00000
000002D00000
000000F10000
000000D30000
000000B60000
0000009A0000
0000004F1000
000000000000
000000100000
0000008A0000
0000004B0000
0000007A0000
000000630000
ENDCHAR
STARTCHAR tcommaaccent
ENCODING 355
SWIDTH 328 0
DWIDTH 6 0
BBX 6 17 0 -6
BITMAP
00B300
00B600
00B600
00C700
9EFFF9
02A800
00A800
00A800
009900
007900
002800
000000
001000
00B700
007900
00A700
008100
ENDCHAR
STARTCHAR Tcaron
ENCODING 356
SWIDTH 581 0
DWIDTH 10 0
BBX 12 14 0 0
BITMAP
000972A70000
00007F800000
333333100000
69BDEFFEEC94
000006801478
000005800000
000004A00000
000003B00000
000002D00000
000000F10000
000000D30000
000000B60000
0000009A0000
0000004F1000
ENDCHAR
STARTCHAR tcaron
ENCODING 357
SWIDTH 431 0
DWIDTH 8 0
BBX 8 13 0 0
BITMAP
000000A1
000000B4
00B300A6
00B60067
00B60001
00C70000
9EFFF900
02A80000
00A80000
00A80000
00990000
00790000
00280000
ENDCHAR
STARTCHAR Utilde
ENCODING 360
SWIDTH 571 0
DWIDTH 10 0
BBX 10 13 0 0
BITMAP
003A710730
00C25CC800
0060012000
1A10000400
5800000A50
7500000B70
7500000970
6700000690
49000002D0
1D000002F3
0B50001CF9
03E647D77E
005DEA2006
ENDCHAR
STARTCHAR utilde
ENCODING 361
SWIDTH 501 0
DWIDTH 9 0
BBX 9 12 0 0
BITMAP
007A401800
03A19CD300
0250021000
6400000000
B400008500
A300009800
9600009A00
6A0000AB00
1E2003FD00
07C23D6D30
008ED40880
0000000260
ENDCHAR
STARTCHAR Umacron
ENCODING 362
SWIDTH 571 0
DWIDTH 10 0
BBX 10 13 0 0
BITMAP
0007ABA200
0019756300
0000000000
1A10000400
5800000A50
7500000B70
7500000970
6700000690
49000002D0
1D000002F3
0B50001CF9
03E647D77E
005DEA2006
ENDCHAR
STARTCHAR umacron
ENCODING 363
SWIDTH 501 0
DWIDTH 9 0
BBX 9 11 0 0
BITMAP
007ABA2000
0296562000
6400000000
B400008500
A300009800
9600009A00
6A0000AB00
1E2003FD00
07C23D6D30
008ED40880
0000000260
ENDCHAR
STARTCHAR Ubreve
ENCODING 364
SWIDTH 571 0
DWIDTH 10 0
BBX 10 12 0 0
BITMAP
000532A000
00019A2000
1A10000400
5800000A50
7500000B70
7500000970
6700000690
49000002D0
1D000002F3
0B50001CF9
03E647D77E
005DEA2006
ENDCHAR
STARTCHAR ubreve
ENCODING 365
SWIDTH 501 0
DWIDTH 9 0
BBX 9 11 0 0
BITMAP
0072480000
002A910000
6400000000
B400008500
A300009800
9600009A00
6A0000AB00
1E2003FD00
07C23D6D30
008ED40880
0000000260
ENDCHAR
STARTCHAR Uring
ENCODING 366
SWIDTH 571 0
DWIDTH 10 0
BBX 10 14 0 0
BITMAP
0000230000
0005795000
0009038000
0002981000
1A10000400
5800000A50
7500000B70
7500000970
6700000690
49000002D0
1D000002F3
0B50001CF9
03E647D77E
005DEA2006
ENDCHAR
STARTCHAR uring
ENCODING 367
SWIDTH 501 0
DWIDTH 9 0
BBX 9 11 0 0
BITMAP
0001300000
0019790000
64450A0000
B408948500
A300009800
9600009A00
6A0000AB00
1E2003FD00
07C23D6D30
008ED40880
0000000260
ENDCHAR
STARTCHAR Uhungarumlaut
ENCODING 368
SWIDTH 571 0
DWIDTH 10 0
BBX 10 14 0 0
BITMAP
0000100000
0007B3A000
002C2E4000
0000020000
1A10000400
5800000A50
7500000B70
7500000970
6700000690
49000002D0
1D000002F3
0B50001CF9
03E647D77E
005DEA2006
ENDCHAR
STARTCHAR uhungarumlaut
ENCODING 369
SWIDTH 501 0
DWIDTH 9 0
BBX 9 13 0 0
BITMAP
0000100000
0006B3A000
001C2E4000
0000030000
6400000000
B400008500
A300009800
9600009A00
6A0000AB00
1E2003FD00
07C23D6D30
008ED40880
0000000260
ENDCHAR
STARTCHAR Uogonek
ENCODING 370
SWIDTH 571 0
DWIDTH 10 0
BBX 11 12 0 -3
BITMAP
0C3000043000
3A0000088000
48000008A000
49000005B000
3A000002D000
1D000000E200
0C300001F800
06B0001CFD00
00CB79D54F20
0019C816C500
0000000B4000
00000004B960
ENDCHAR
STARTCHAR uogonek
ENCODING 371
SWIDTH 501 0
DWIDTH 9 0
BBX 10 12 0 -3
BITMAP
3200000000
A500005200
B300009800
A500009900
7800009A00
2D0001EC00
0B900ABE10
02CCD80960
0004307C90
000001D100
000001D741
0000001451
ENDCHAR
STARTCHAR Wcircumflex
ENCODING 372
SWIDTH 703 0
DWIDTH 13 0
BBX 13 17 0 0
BITMAP
00000010000000
000002F3000000
000009FD200000
00009C2CA00000
00006101500000
00000000000000
00000000000000
00000000000000
91000000008000
C300000000E500
C400000000AA00
B5000600004E00
A7000E10000E30
79000E60000B50
3D006FD1000D30
0B98E38C44B900
01BB2006EE7000
ENDCHAR
STARTCHAR wcircumflex
ENCODING 373
SWIDTH 656 0
DWIDTH 12 0
BBX 12 14 0 0
BITMAP
000001100000
000008B00000
00002EF90000
0002D65F3000
000340042000
000000000000
140000000000
770000000400
B40004400690
C300078000E1
A50008A000C4
5A000CE100D4
0C64BDBB6AE1
01BEA208BA40
ENDCHAR
STARTCHAR Ycircumflex
ENCODING 374
SWIDTH 403 0
DWIDTH 7 0
BBX 7 18 0 -1
BITMAP
00010000
000C7000
005FF500
05E39E00
05200600
50000000
960000B0
3E1002C0
08C10890
007E9E40
0003BD00
00009800
0000D200
0002D000
00059000
00067000
00078000
00012000
ENDCHAR
STARTCHAR ycircumflex
ENCODING 375
SWIDTH 487 0
DWIDTH 9 0
BBX 9 23 0 -9
BITMAP
0000100000
0001F40000
0008FE2000
008C2BB000
0061016000
0000000000
6000000700
A200001B00
9400000E00
7800000F10
2D00000E30
0A60007F50
01D86BBC60
0017940660
0000000570
0000000670
0000000760
0000000950
0000000B30
2B00000E10
0CB1005A00
01BD77E300
0004AB5000
ENDCHAR
STARTCHAR Ydieresis
ENCODING 376
SWIDTH 403 0
DWIDTH 7 0
BBX 7 15 0 -1
BITMAP
01502400
08F2AE00
51301200
960000B0
3E1002C0
08C10890
007E9E40
0003BD00
00009800
0000D200
0002D000
00059000
00067000
00078000
00012000
ENDCHAR
STARTCHAR Zacute
ENCODING 377
SWIDTH 571 0
DWIDTH 10 0
BBX 10 15 0 0
BITMAP
0000056000
00008B1000
0001A00000
0021000000
6ECBD91000
420006C000
000000B300
000000B300
000003E100
006ACFFFD2
00658E4000
0000A50000
0006A00000
000D4148BB
000AFFDB72
ENDCHAR
STARTCHAR zacute
ENCODING 378
SWIDTH 459 0
DWIDTH 8 0
BBX 8 13 0 0
BITMAP
00019100
002D6000
00750000
00343000
5EBBC900
43000E00
00001E00
00007B10
3BDFEC90
025E4000
01D60000
06F635A9
02CFEC81
ENDCHAR
STARTCHAR Zdotaccent
ENCODING 379
SWIDTH 571 0
DWIDTH 10 0
BBX 10 14 0 0
BITMAP
0004900000
0002700000
0021000000
6ECBD91000
420006C000
000000B300
000000B300
000003E100
006ACFFFD2
00658E4000
0000A50000
0006A00000
000D4148BB
000AFFDB72
ENDCHAR
STARTCHAR zdotaccent
ENCODING 380
SWIDTH 459 0
DWIDTH 8 0
BBX 8 12 0 0
BITMAP
00049000
00018000
00343000
5EBBC900
43000E00
00001E00
00007B10
3BDFEC90
025E4000
01D60000
06F635A9
02CFEC81
ENDCHAR
STARTCHAR Zcaron
ENCODING 381
SWIDTH 571 0
DWIDTH 10 0
BBX 10 14 0 0
BITMAP
007927A000
0004FA1000
0021200000
6ECBD91000
420006C000
000000B300
000000B300
000003E100
006ACFFFD2
00658E4000
0000A50000
0006A00000
000D4148BB
000AFFDB72
ENDCHAR
STARTCHAR zcaron
ENCODING 382
SWIDTH 459 0
DWIDTH 8 0
BBX 8 12 0 0
BITMAP
07828900
005F9100
00363000
5EBBC900
43000E00
00001E00
00007B10
3BDFEC90
025E4000
01D60000
06F635A9
02CFEC81
ENDCHAR
STARTCHAR florin
ENCODING 402
SWIDTH 376 0
DWIDTH 7 0
BBX 11 18 -2 -5
BITMAP
000003983000
00003E76E500
0000B6003D10
0001E0000000
0004C0000000
0005D0000000
0005D0000000
008CFCA92000
0163E4440000
0000E2000000
0000E1000000
0000F1000000
0000F0000000
0001F0000000
6202E0000000
4D23D0000000
05DAC0000000
002870000000
ENDCHAR
STARTCHAR AEacute
ENCODING 508
SWIDTH 960 0
DWIDTH 17 0
BBX 17 16 0 0
BITMAP
000000000380000000
000000005D30000000
0006A820A200000000
00B736E30000000000
0580004C0222111100
0A20000A6FEDDDCC60
0B000004CD00000000
0B000000ED00000000
1A000000CD00001210
2A000000BE89BDD910
7FDBBBCBFD53210000
1D0000018A00000000
0D0000006900000000
0F1000006A00000000
0C3000009C33457860
07500000AADEEECA40
ENDCHAR
STARTCHAR aeacute
ENCODING 509
SWIDTH 881 0
DWIDTH 16 0
BBX 16 14 0 -1
BITMAP
0000000038000000
00000006D2000000
0000000B10000000
0000000000000000
003DD60007CC6000
00224C80A922D400
000001D9B0006700
0047757F5001B600
1CC869FF758E9000
8800004E88720000
9400000690000000
3D743568F8100000
029DEEB62AFCBCB3
0000000000256400
ENDCHAR
STARTCHAR Oslashacute
ENCODING 510
SWIDTH 609 0
DWIDTH 11 0
BBX 11 15 0 -2
BITMAP
000002400000
00005D200000
0002D2000000
000010120000
006A84750000
0BA68CF70000
590001CCA000
93000670C800
A3000C201E20
78003C000A60
2E4096000C50
06F8D115CA00
003DFED94000
000D20000000
000600000000
ENDCHAR
STARTCHAR oslashacute
ENCODING 511
SWIDTH 487 0
DWIDTH 9 0
BBX 9 11 0 0
BITMAP
0000290000
0004D30000
000A200000
0003662500
03DCAEF700
2D4004EB00
86001D4D20
A400B80D30
7807C06F10
1D9E38F700
04EEEB4000
ENDCHAR
STARTCHAR Scommaaccent
ENCODING 536
SWIDTH 627 0
DWIDTH 11 0
BBX 11 17 0 -6
BITMAP
00049CB94000
005B4115D800
009400000200
005B10000000
0006D6000000
000018D71000
1100002AD500
860000003C50
5B00000005C0
07B410001A90
0029DEDED810
000001110000
000001000000
00006C000000
00001E000000
00005C000000
000044000000
ENDCHAR
STARTCHAR scommaaccent
ENCODING 537
SWIDTH 514 0
DWIDTH 9 0
BBX 9 15 0 -6
BITMAP
0002100000
08ECDA0000
4C10094000
2C10051000
05CB985100
0001359E30
21000008A0
5D61002B90
04ADFFE910
0000000000
0000100000
0001F20000
0000B40000
0001E20000
0001800000
ENDCHAR
STARTCHAR circumflex
ENCODING 710
SWIDTH 375 0
DWIDTH 7 0
BBX 5 5 1 9
BITMAP
001000
02F300
09FD20
9C2CA0
610150
ENDCHAR
STARTCHAR caron
ENCODING 711
SWIDTH 375 0
DWIDTH 7 0
BBX 5 3 1 8
BITMAP
882890
05F910
002000
ENDCHAR
STARTCHAR breve
ENCODING 728
SWIDTH 224 0
DWIDTH 4 0
BBX 4 2 0 7
BITMAP
6239
2AA2
ENDCHAR
STARTCHAR dotaccent
ENCODING 729
SWIDTH 152 0
DWIDTH 3 0
BBX 2 2 0 8
BITMAP
1C
09
ENDCHAR
STARTCHAR ring
ENCODING 730
SWIDTH 333 0
DWIDTH 6 0
BBX 4 4 1 7
BITMAP
0130
1979
450A
0893
ENDCHAR
STARTCHAR ogonek
ENCODING 731
SWIDTH 254 0
DWIDTH 5 0
BBX 4 4 0 -3
BITMAP
0590
4C20
7A10
1798
ENDCHAR
STARTCHAR tilde
ENCODING 732
SWIDTH 402 0
DWIDTH 7 0
BBX 7 3 0 7
BITMAP
19920460
863BCB10
52002000
ENDCHAR
STARTCHAR hungarumlaut
ENCODING 733
SWIDTH 264 0
DWIDTH 5 0
BBX 5 4 0 7
BITMAP
001000
1B6660
785C10
102100
ENDCHAR
STARTCHAR Wgrave
ENCODING 7808
SWIDTH 703 0
DWIDTH 13 0
BBX 13 13 0 0
BITMAP
00000790000000
0000009A000000
00000001000000
00000000000000
91000000008000
C300000000E500
C400000000AA00
B5000600004E00
A7000E10000E30
79000E60000B50
3D006FD1000D30
0B98E38C44B900
01BB2006EE7000
ENDCHAR
STARTCHAR wgrave
ENCODING 7809
SWIDTH 656 0
DWIDTH 12 0
BBX 12 10 0 0
BITMAP
00000C500000
000002D40000
140000100000
770000000400
B40004400690
C300078000E1
A50008A000C4
5A000CE100D4
0C64BDBB6AE1
01BEA208BA40
ENDCHAR
STARTCHAR Wacute
ENCODING 7810
SWIDTH 703 0
DWIDTH 13 0
BBX 13 13 0 0
BITMAP
00000074000000
00001B90000000
00004700000000
00000000000000
91000000008000
C300000000E500
C400000000AA00
B5000600004E00
A7000E10000E30
79000E60000B50
3D006FD1000D30
0B98E38C44B900
01BB2006EE7000
ENDCHAR
STARTCHAR wacute
ENCODING 7811
SWIDTH 656 0
DWIDTH 12 0
BBX 12 12 0 0
BITMAP
000000830000
00001C800000
000057000000
000000000000
140000000000
770000000400
B40004400690
C300078000E1
A50008A000C4
5A000CE100D4
0C64BDBB6AE1
01BEA208BA40
ENDCHAR
STARTCHAR Wdieresis
ENCODING 7812
SWIDTH 703 0
DWIDTH 13 0
BBX 13 13 0 0
BITMAP
00004305100000
0000DB1F800000
00002103000000
00000000000000
91000000008000
C300000000E500
C400000000AA00
B5000600004E00
A7000E10000E30
79000E60000B50
3D006FD1000D30
0B98E38C44B900
01BB2006EE7000
ENDCHAR
STARTCHAR wdieresis
ENCODING 7813
SWIDTH 656 0
DWIDTH 12 0
BBX 12 10 0 0
BITMAP
000060150000
0005F58F2000
140030130000
770000000400
B40004400690
C300078000E1
A50008A000C4
5A000CE100D4
0C64BDBB6AE1
01BEA208BA40
ENDCHAR
STARTCHAR Ygrave
ENCODING 7922
SWIDTH 403 0
DWIDTH 7 0
BBX 7 16 0 -1
BITMAP
006A1000
0008A000
00001000
50000000
960000B0
3E1002C0
08C10890
007E9E40
0003BD00
00009800
0000D200
0002D000
00059000
00067000
00078000
00012000
ENDCHAR
STARTCHAR ygrave
ENCODING 7923
SWIDTH 487 0
DWIDTH 9 0
BBX 9 19 0 -9
BITMAP
0006A10000
00008A0000
6000010700
A200001B00
9400000E00
7800000F10
2D00000E30
0A60007F50
01D86BBC60
0017940660
0000000570
0000000670
0000000760
0000000950
0000000B30
2B00000E10
0CB1005A00
01BD77E300
0004AB5000
ENDCHAR
STARTCHAR endash
ENCODING 8211
SWIDTH 287 0
DWIDTH 5 0
BBX 5 2 0 4
BITMAP
39AB70
785560
ENDCHAR
STARTCHAR emdash
ENCODING 8212
SWIDTH 512 0
DWIDTH 9 0
BBX 9 2 0 4
BITMAP
0579AAAA40
6987655640
ENDCHAR
STARTCHAR quoteleft
ENCODING 8216
SWIDTH 102 0
DWIDTH 2 0
BBX 2 5 0 8
BITMAP
92
96
87
58
01
ENDCHAR
STARTCHAR quoteright
ENCODING 8217
SWIDTH 102 0
DWIDTH 2 0
BBX 2 5 0 8
BITMAP
92
96
87
58
01
ENDCHAR
STARTCHAR quotesinglbase
ENCODING 8218
SWIDTH 102 0
DWIDTH 2 0
BBX 2 5 0 -1
BITMAP
61
96
88
59
14
ENDCHAR
STARTCHAR quotedblleft
ENCODING 8220
SWIDTH 234 0
DWIDTH 4 0
BBX 4 7 0 8
BITMAP
0020
9075
B378
976A
5B5B
1B3B
0001
ENDCHAR
STARTCHAR quotedblright
ENCODING 8221
SWIDTH 234 0
DWIDTH 4 0
BBX 4 7 0 8
BITMAP
0020
9075
B378
976A
5B5B
1B3B
0001
ENDCHAR
STARTCHAR quotedblbase
ENCODING 8222
SWIDTH 341 0
DWIDTH 6 0
BBX 4 7 1 -3
BITMAP
0011
7157
955A
794C
3C3D
0B3D
0002
ENDCHAR
STARTCHAR dagger
ENCODING 8224
SWIDTH 375 0
DWIDTH 7 0
BBX 7 12 0 0
BITMAP
00500000
00930000
00670000
002A0000
18BEBA10
587E4510
000C1000
000C2000
000C3000
000C3000
000B4000
00094000
ENDCHAR
STARTCHAR daggerdbl
ENCODING 8225
SWIDTH 375 0
DWIDTH 7 0
BBX 9 14 -1 0
BITMAP
0004100000
000B500000
0009800000
0005A00000
0001C00000
4899E99820
6777D54750
0122B33100
9DDDEDDC10
0000A20000
0000A30000
0000A30000
0000A30000
0000940000
ENDCHAR
STARTCHAR bullet
ENCODING 8226
SWIDTH 341 0
DWIDTH 6 0
BBX 4 4 1 3
BITMAP
0140
0AFA
1FFE
09F6
ENDCHAR
STARTCHAR ellipsis
ENCODING 8230
SWIDTH 612 0
DWIDTH 11 0
BBX 11 4 0 0
BITMAP
022004101400
0DD03F908F40
2FF27FC0CF70
0BA02E506D20
ENDCHAR
STARTCHAR guilsinglleft
ENCODING 8249
SWIDTH 487 0
DWIDTH 9 0
BBX 9 8 0 0
BITMAP
0000000400
000002CA10
00007D5000
002BA10000
05D5000000
6F40000000
8EFDB95000
001357C800
ENDCHAR
STARTCHAR guilsinglright
ENCODING 8250
SWIDTH 403 0
DWIDTH 7 0
BBX 8 9 0 0
BITMAP
22000000
4E600000
03BEA620
00026BF1
00000AC0
0001AB10
004D8000
08D40000
6A100000
ENDCHAR
STARTCHAR fraction
ENCODING 8260
SWIDTH 309 0
DWIDTH 6 0
BBX 6 14 0 0
BITMAP
000021
0000A3
0000D1
0003B0
000870
000D20
004D00
009800
00E200
05C000
0B6000
3E1000
990000
A20000
ENDCHAR
STARTCHAR Euro
ENCODING 8364
SWIDTH 741 0
DWIDTH 13 0
BBX 13 13 0 0
BITMAP
00000000057200
00000003CB6900
0000005B200000
001238FC820000
9FEEFE9A990000
3100C100000000
00049013420000
245CFDCA950000
887E4000000000
000B2000000000
00075000000000
0002D411369C90
00004CFFDB8400
ENDCHAR
STARTCHAR trademark
ENCODING 8482
SWIDTH 1116 0
DWIDTH 20 0
BBX 20 11 0 0
BITMAP
9DEEEDCBA87D200002C0
000128A347BEB00008D0
000005800006F6002EC0
000004900006BEA9EFB0
000003B00006828844C0
000002D00007800002D0
000000F00008800001F1
000000D30008800000E3
000000B50008800000D6
0000009A0008800000B7
0000005F100330000098
ENDCHAR
STARTCHAR minus
ENCODING 8722
SWIDTH 287 0
DWIDTH 5 0
BBX 5 2 0 4
BITMAP
39AB70
785560
ENDCHAR
STARTCHAR commaaccent
ENCODING 63171
SWIDTH 375 0
DWIDTH 7 0
BBX 2 5 2 -6
BITMAP
10
D5
97
C5
80
ENDCHAR
STARTCHAR fi
ENCODING 64257
SWIDTH 551 0
DWIDTH 10 0
BBX 10 14 -1 -1
BITMAP
0000398300
0003E76E50
000B3053D1
001B008300
0049000000
005A000600
005C000D00
08CFCA9E00
163DA66F10
0006C00E40
0000D50C70
00006E1A90
00000B67A0
0000000120
ENDCHAR
STARTCHAR fl
ENCODING 64258
SWIDTH 723 0
DWIDTH 13 0
BBX 10 13 -1 0
BITMAP
0000398300
0003E76E50
000B3003D1
001B004A00
0049004C00
005A004C00
005C005D00
08CFCBBD00
163DA69D00
0006C05E00
0000D54D00
00006E4D00
00000B7B00
ENDCHAR
STARTCHAR .notdef
ENCODING -1
SWIDTH 375 0
DWIDTH 7 0
BBX 1 1 0 0
BITMAP
00
ENDCHAR
STARTCHAR .null
ENCODING -1
SWIDTH 0 0
DWIDTH 0 0
BBX 1 1 0 0
BITMAP
00
ENDCHAR
STARTCHAR nonmarkingreturn
ENCODING -1
SWIDTH 375 0
DWIDTH 7 0
BBX 1 1 0 0
BITMAP
00
ENDCHAR
ENDFONT
